<svg width="480" height="160" viewBox="0 0 480 160" fill="none" xmlns="http://www.w3.org/2000/svg">
<g clip-path="url(#clip0_2:392)">
<rect width="80" height="80" transform="translate(320) rotate(90)" fill="#FD628C"/>
<path fill-rule="evenodd" clip-rule="evenodd" d="M320 0L320 9L240 9L240 -3.49691e-06L320 0ZM320 18L320 27L240 27L240 18L320 18ZM320 45L320 36L240 36L240 45L320 45ZM320 54L320 63L240 63L240 54L320 54ZM320 80L320 71L240 71L240 80L320 80Z" fill="#82FEBD"/>
</g>
<g clip-path="url(#clip1_2:392)">
<rect width="80" height="80" transform="translate(160 80)" fill="#022340"/>
<path fill-rule="evenodd" clip-rule="evenodd" d="M160 80H169V160H160V80ZM178 80H187V160H178V80ZM205 80H196V160H205V80ZM214 80H223V160H214V80ZM240 80H231V160H240V80Z" fill="#E1EFFF"/>
<circle cx="160" cy="120" r="40" fill="#022340"/>
</g>
<g clip-path="url(#clip2_2:392)">
<rect width="80" height="80" transform="translate(400)" fill="#FD9E28"/>
<path fill-rule="evenodd" clip-rule="evenodd" d="M400.605 9.89094C400.206 6.65 400 3.34903 400 0C400 -0.75682 400.011 -1.51118 400.031 -2.26296L441.561 -43.7921L447.925 -37.4282L400.605 9.89094ZM420.575 53.561L479.744 -5.60835L486.108 0.755612L426.967 59.8969C424.72 57.9058 422.586 55.7903 420.575 53.561ZM434.077 65.5147L492.472 7.11957L498.836 13.4835L441.937 70.3824C439.218 68.909 436.594 67.2825 434.077 65.5147ZM450.616 74.4313L505.2 19.8475L511.564 26.2115L460.236 77.5399C456.943 76.7032 453.732 75.6622 450.616 74.4313ZM471.004 79.4998L517.928 32.5754L524.292 38.9394L483.298 79.9333C482.204 79.9776 481.105 80 480 80C476.959 80 473.957 79.8303 471.004 79.4998ZM414.9 46.508C413.113 44.0114 411.467 41.4078 409.971 38.7086L467.016 -18.3363L473.38 -11.9723L414.9 46.508ZM405.855 30.0975C404.6 27.0091 403.532 23.8246 402.666 20.5581L454.288 -31.0642L460.652 -24.7002L405.855 30.0975Z" fill="#FEDE32"/>
</g>
<g clip-path="url(#clip3_2:392)">
<rect width="80" height="80" transform="translate(160 160) rotate(-180)" fill="#FEDE32"/>
<path fill-rule="evenodd" clip-rule="evenodd" d="M159.395 150.109C159.794 153.35 160 156.651 160 160C160 160.757 159.989 161.511 159.969 162.263L118.439 203.792L112.075 197.428L159.395 150.109ZM154.145 129.903C155.4 132.991 156.468 136.175 157.334 139.442L105.712 191.064L99.3476 184.7L154.145 129.903ZM145.1 113.492C146.887 115.989 148.533 118.592 150.029 121.291L92.9836 178.336L86.6197 171.972L145.1 113.492ZM133.033 100.103C135.28 102.094 137.414 104.21 139.425 106.439L80.2557 165.608L73.8917 159.244L133.033 100.103ZM118.063 89.6176C120.782 91.091 123.406 92.7175 125.923 94.4853L67.5278 152.88L61.1638 146.516L118.063 89.6176ZM99.7643 82.4601C103.057 83.2968 106.268 84.3378 109.384 85.5687L54.7998 140.153L48.4359 133.789L99.7643 82.4601ZM88.9963 80.5002L42.0719 127.425L35.708 121.061L120.561 36.2078L126.925 42.5718L88.9963 80.5002Z" fill="#82FEBD"/>
</g>
<g clip-path="url(#clip4_2:392)">
<rect width="80" height="80" fill="#BAD424"/>
<circle cx="40" r="40" fill="#FEDE32"/>
</g>
<g clip-path="url(#clip5_2:392)">
<rect width="80" height="80" transform="translate(320 80) rotate(-90)" fill="#FEDE32"/>
<circle cx="320" cy="40" r="40" transform="rotate(-90 320 40)" fill="#82FEBD"/>
</g>
<g clip-path="url(#clip6_2:392)">
<rect width="80" height="80" transform="translate(480 160) rotate(180)" fill="#E1EFFF"/>
<circle cx="440" cy="160" r="40" transform="rotate(180 440 160)" fill="#FD628C"/>
</g>
<rect width="80" height="80" transform="translate(160)" fill="#FD9E28"/>
<circle cx="200" cy="40" r="20" fill="#E1EFFF"/>
<rect width="80" height="80" transform="translate(80)" fill="#E1EFFF"/>
<path d="M160 0V80H80L160 0Z" fill="#82FEBD"/>
<g clip-path="url(#clip7_2:392)">
<rect width="80" height="80" transform="translate(240 80)" fill="#022340"/>
<path fill-rule="evenodd" clip-rule="evenodd" d="M305.29 81.3495C272.902 87.3691 247.369 112.902 241.349 145.29L305.29 81.3495ZM240.145 164.85C240.049 163.246 240 161.629 240 160C240 159.788 240.001 159.576 240.002 159.365L319.365 80.0025C319.576 80.0008 319.788 80 320 80C321.735 80 323.457 80.0552 325.164 80.164L328.548 83.5477L243.695 168.401L240.145 164.85ZM334.912 89.9117L341.276 96.2757L256.423 181.128L250.059 174.764L334.912 89.9117ZM347.64 102.64L354.004 109.004L269.151 193.856L262.787 187.492L347.64 102.64ZM360.367 115.368L366.731 121.731L281.879 206.584L275.515 200.22L360.367 115.368Z" fill="#FD628C"/>
</g>
<g clip-path="url(#clip8_2:392)">
<rect width="80" height="80" transform="translate(0 80)" fill="#BAD424"/>
<circle cx="80" cy="160" r="80" fill="#FD628C"/>
</g>
<g clip-path="url(#clip9_2:392)">
<rect width="80" height="80" transform="matrix(-1 0 0 1 400 80)" fill="#FD9E28"/>
<circle r="80" transform="matrix(-1 0 0 1 320 160)" fill="#FD628C"/>
</g>
<defs>
<clipPath id="clip0_2:392">
<rect width="80" height="80" fill="white" transform="translate(320) rotate(90)"/>
</clipPath>
<clipPath id="clip1_2:392">
<rect width="80" height="80" fill="white" transform="translate(160 80)"/>
</clipPath>
<clipPath id="clip2_2:392">
<rect width="80" height="80" fill="white" transform="translate(400)"/>
</clipPath>
<clipPath id="clip3_2:392">
<rect width="80" height="80" fill="white" transform="translate(160 160) rotate(-180)"/>
</clipPath>
<clipPath id="clip4_2:392">
<rect width="80" height="80" fill="white"/>
</clipPath>
<clipPath id="clip5_2:392">
<rect width="80" height="80" fill="white" transform="translate(320 80) rotate(-90)"/>
</clipPath>
<clipPath id="clip6_2:392">
<rect width="80" height="80" fill="white" transform="translate(480 160) rotate(180)"/>
</clipPath>
<clipPath id="clip7_2:392">
<rect width="80" height="80" fill="white" transform="translate(240 80)"/>
</clipPath>
<clipPath id="clip8_2:392">
<rect width="80" height="80" fill="white" transform="translate(0 80)"/>
</clipPath>
<clipPath id="clip9_2:392">
<rect width="80" height="80" fill="white" transform="matrix(-1 0 0 1 400 80)"/>
</clipPath>
</defs>
</svg>
