<svg width="221" height="78" viewBox="0 0 221 78" fill="none" xmlns="http://www.w3.org/2000/svg">
<g clip-path="url(#clip0)">
<path d="M11.088 26.184C12 26.184 12.744 26.052 13.32 25.788C13.92 25.5 14.376 25.128 14.688 24.672C15.024 24.192 15.252 23.652 15.372 23.052C15.492 22.428 15.552 21.792 15.552 21.144V20.496H20.304V21.144C20.304 24.144 19.512 26.46 17.928 28.092C16.368 29.7 14.088 30.504 11.088 30.504C8.208 30.504 5.928 29.628 4.248 27.876C2.568 26.124 1.728 23.568 1.728 20.208V14.592C1.728 12.984 1.944 11.544 2.376 10.272C2.808 8.976 3.432 7.896 4.248 7.032C5.064 6.144 6.048 5.472 7.2 5.016C8.352 4.536 9.648 4.296 11.088 4.296C12.576 4.296 13.896 4.512 15.048 4.944C16.2 5.376 17.16 6 17.928 6.816C18.72 7.632 19.308 8.616 19.692 9.768C20.1 10.92 20.304 12.216 20.304 13.656V14.304H15.552V13.656C15.552 13.056 15.48 12.456 15.336 11.856C15.192 11.256 14.952 10.716 14.616 10.236C14.28 9.756 13.824 9.372 13.248 9.084C12.672 8.772 11.952 8.616 11.088 8.616C10.296 8.616 9.612 8.772 9.036 9.084C8.46 9.372 7.98 9.78 7.596 10.308C7.212 10.812 6.924 11.412 6.732 12.108C6.564 12.78 6.48 13.488 6.48 14.232V20.568C6.48 21.384 6.564 22.14 6.732 22.836C6.9 23.508 7.164 24.096 7.524 24.6C7.884 25.104 8.352 25.5 8.928 25.788C9.528 26.052 10.248 26.184 11.088 26.184ZM59.7099 27.408H59.0619C58.8699 27.816 58.6299 28.212 58.3419 28.596C58.0779 28.956 57.7179 29.28 57.2619 29.568C56.8299 29.856 56.3019 30.084 55.6779 30.252C55.0779 30.42 54.3459 30.504 53.4819 30.504C52.3779 30.504 51.3459 30.312 50.3859 29.928C49.4499 29.52 48.6219 28.932 47.9019 28.164C47.2059 27.372 46.6539 26.412 46.2459 25.284C45.8619 24.156 45.6699 22.86 45.6699 21.396V20.748C45.6699 19.308 45.8739 18.024 46.2819 16.896C46.7139 15.768 47.2899 14.82 48.0099 14.052C48.7539 13.26 49.6059 12.66 50.5659 12.252C51.5499 11.844 52.5819 11.64 53.6619 11.64C55.1019 11.64 56.2419 11.916 57.0819 12.468C57.9219 12.996 58.5819 13.752 59.0619 14.736H59.7099V4.8H64.2459V30H59.7099V27.408ZM54.9579 26.184C56.3739 26.184 57.5139 25.74 58.3779 24.852C59.2659 23.94 59.7099 22.752 59.7099 21.288V20.856C59.7099 19.392 59.2659 18.216 58.3779 17.328C57.5139 16.416 56.3739 15.96 54.9579 15.96C53.5419 15.96 52.3899 16.404 51.5019 17.292C50.6379 18.156 50.2059 19.344 50.2059 20.856V21.288C50.2059 22.8 50.6379 24 51.5019 24.888C52.3899 25.752 53.5419 26.184 54.9579 26.184ZM69.2609 25.68H75.3089V16.464H69.6929V12.144H79.8449V25.68H85.0289V30H69.2609V25.68ZM80.9609 6.852C80.9609 7.332 80.8649 7.788 80.6729 8.22C80.5049 8.628 80.2649 8.988 79.9529 9.3C79.6409 9.588 79.2689 9.828 78.8369 10.02C78.4289 10.188 77.9969 10.272 77.5409 10.272C77.0609 10.272 76.6169 10.188 76.2089 10.02C75.8009 9.828 75.4409 9.588 75.1289 9.3C74.8169 8.988 74.5649 8.628 74.3729 8.22C74.2049 7.788 74.1209 7.332 74.1209 6.852C74.1209 6.372 74.2049 5.928 74.3729 5.52C74.5649 5.088 74.8169 4.728 75.1289 4.44C75.4409 4.128 75.8009 3.888 76.2089 3.72C76.6169 3.528 77.0609 3.432 77.5409 3.432C77.9969 3.432 78.4289 3.528 78.8369 3.72C79.2689 3.888 79.6409 4.128 79.9529 4.44C80.2649 4.728 80.5049 5.088 80.6729 5.52C80.8649 5.928 80.9609 6.372 80.9609 6.852ZM95.5159 30H90.9799V12.144H95.5159V14.808H96.1639C96.5719 13.8 97.2319 13.02 98.1439 12.468C99.0559 11.916 100.124 11.64 101.348 11.64C102.212 11.64 103.016 11.784 103.76 12.072C104.528 12.336 105.2 12.756 105.776 13.332C106.352 13.908 106.796 14.64 107.108 15.528C107.444 16.416 107.612 17.472 107.612 18.696V30H103.076V19.848C103.076 18.576 102.764 17.58 102.14 16.86C101.54 16.116 100.664 15.744 99.5119 15.744C98.1679 15.744 97.1599 16.2 96.4879 17.112C95.8399 18 95.5159 19.2 95.5159 20.712V30ZM125.767 27.408H125.119C124.927 27.816 124.687 28.212 124.399 28.596C124.135 28.956 123.775 29.28 123.319 29.568C122.887 29.856 122.359 30.084 121.735 30.252C121.135 30.42 120.403 30.504 119.539 30.504C118.435 30.504 117.403 30.312 116.443 29.928C115.507 29.52 114.679 28.932 113.959 28.164C113.263 27.372 112.711 26.412 112.303 25.284C111.919 24.156 111.727 22.86 111.727 21.396V20.748C111.727 19.308 111.931 18.024 112.339 16.896C112.771 15.768 113.347 14.82 114.067 14.052C114.811 13.26 115.663 12.66 116.623 12.252C117.607 11.844 118.639 11.64 119.719 11.64C121.159 11.64 122.299 11.916 123.139 12.468C123.979 12.996 124.639 13.752 125.119 14.736H125.767V12.144H130.303V34.392C130.303 35.208 130.039 35.88 129.511 36.408C129.007 36.936 128.347 37.2 127.531 37.2H115.507V32.88H124.795C125.443 32.88 125.767 32.52 125.767 31.8V27.408ZM121.015 26.184C122.431 26.184 123.571 25.74 124.435 24.852C125.323 23.94 125.767 22.752 125.767 21.288V20.856C125.767 19.392 125.323 18.216 124.435 17.328C123.571 16.416 122.431 15.96 121.015 15.96C119.599 15.96 118.447 16.404 117.559 17.292C116.695 18.156 116.263 19.344 116.263 20.856V21.288C116.263 22.8 116.695 24 117.559 24.888C118.447 25.752 119.599 26.184 121.015 26.184ZM135.426 4.8H151.554V9.336H140.178V15.096H151.338V19.632H140.178V30H135.426V4.8ZM183.688 30H179.152V12.144H183.688V14.808H184.336C184.744 13.8 185.404 13.02 186.316 12.468C187.228 11.916 188.296 11.64 189.52 11.64C190.384 11.64 191.188 11.784 191.932 12.072C192.7 12.336 193.372 12.756 193.948 13.332C194.524 13.908 194.968 14.64 195.28 15.528C195.616 16.416 195.784 17.472 195.784 18.696V30H191.248V19.848C191.248 18.576 190.936 17.58 190.312 16.86C189.712 16.116 188.836 15.744 187.684 15.744C186.34 15.744 185.332 16.2 184.66 17.112C184.012 18 183.688 19.2 183.688 20.712V30ZM200.691 12.144H205.983V4.8H210.519V12.144H216.963V16.464H210.519V24.6C210.519 25.32 210.843 25.68 211.491 25.68H216.315V30H208.755C207.939 30 207.267 29.736 206.739 29.208C206.235 28.68 205.983 28.008 205.983 27.192V16.464H200.691V12.144Z" fill="#27AE60"/>
<path d="M7.344 56.496V66H2.592V40.8H12.456C13.752 40.8 14.88 41.016 15.84 41.448C16.8 41.856 17.592 42.408 18.216 43.104C18.864 43.776 19.344 44.556 19.656 45.444C19.992 46.308 20.16 47.196 20.16 48.108V48.972C20.16 49.908 19.992 50.832 19.656 51.744C19.344 52.632 18.864 53.436 18.216 54.156C17.592 54.852 16.8 55.416 15.84 55.848C14.88 56.28 13.752 56.496 12.456 56.496H7.344ZM7.344 51.96H11.988C13.044 51.96 13.872 51.672 14.472 51.096C15.096 50.52 15.408 49.776 15.408 48.864V48.432C15.408 47.52 15.096 46.776 14.472 46.2C13.872 45.624 13.044 45.336 11.988 45.336H7.344V51.96ZM24.743 61.68H31.007V45.12H24.959V40.8H35.543V61.68H41.375V66H24.743V61.68ZM58.4499 63.408C57.9699 64.536 57.2979 65.34 56.4339 65.82C55.5699 66.276 54.5619 66.504 53.4099 66.504C52.3299 66.504 51.3099 66.3 50.3499 65.892C49.4139 65.484 48.5859 64.884 47.8659 64.092C47.1459 63.3 46.5699 62.34 46.1379 61.212C45.7299 60.084 45.5259 58.8 45.5259 57.36V56.784C45.5259 55.368 45.7299 54.096 46.1379 52.968C46.5459 51.84 47.0979 50.88 47.7939 50.088C48.4899 49.296 49.2939 48.696 50.2059 48.288C51.1419 47.856 52.1379 47.64 53.1939 47.64C54.4659 47.64 55.4859 47.856 56.2539 48.288C57.0459 48.72 57.6699 49.392 58.1259 50.304H58.7739V48.144H63.3099V60.6C63.3099 61.32 63.6339 61.68 64.2819 61.68H64.9659V66H61.8699C61.0539 66 60.3819 65.76 59.8539 65.28C59.3499 64.8 59.0979 64.176 59.0979 63.408H58.4499ZM54.4179 62.184C55.7379 62.184 56.7939 61.752 57.5859 60.888C58.3779 60 58.7739 58.8 58.7739 57.288V56.856C58.7739 55.344 58.3779 54.156 57.5859 53.292C56.7939 52.404 55.7379 51.96 54.4179 51.96C53.0979 51.96 52.0419 52.404 51.2499 53.292C50.4579 54.156 50.0619 55.344 50.0619 56.856V57.288C50.0619 58.8 50.4579 60 51.2499 60.888C52.0419 61.752 53.0979 62.184 54.4179 62.184ZM81.0329 48.144H85.5689V70.392C85.5689 71.208 85.3049 71.88 84.7769 72.408C84.2729 72.936 83.6129 73.2 82.7969 73.2H72.1769V68.88H80.0609C80.7089 68.88 81.0329 68.52 81.0329 67.8V63.408H80.3849C79.5929 65.472 77.8889 66.504 75.2729 66.504C74.3849 66.504 73.5569 66.36 72.7889 66.072C72.0209 65.784 71.3489 65.34 70.7729 64.74C70.1969 64.14 69.7409 63.396 69.4049 62.508C69.0929 61.596 68.9369 60.528 68.9369 59.304V48.144H73.4729V58.368C73.4729 59.64 73.7729 60.636 74.3729 61.356C74.9729 62.052 75.8729 62.4 77.0729 62.4C78.4409 62.4 79.4369 61.968 80.0609 61.104C80.7089 60.216 81.0329 59.016 81.0329 57.504V48.144ZM103.724 63.408H103.076C102.884 63.816 102.644 64.212 102.356 64.596C102.092 64.956 101.732 65.28 101.276 65.568C100.844 65.856 100.316 66.084 99.6919 66.252C99.0919 66.42 98.3599 66.504 97.4959 66.504C96.3919 66.504 95.3599 66.312 94.3999 65.928C93.4639 65.52 92.6359 64.932 91.9159 64.164C91.2199 63.372 90.6679 62.412 90.2599 61.284C89.8759 60.156 89.6839 58.86 89.6839 57.396V56.748C89.6839 55.308 89.8879 54.024 90.2959 52.896C90.7279 51.768 91.3039 50.82 92.0239 50.052C92.7679 49.26 93.6199 48.66 94.5799 48.252C95.5639 47.844 96.5959 47.64 97.6759 47.64C99.1159 47.64 100.256 47.916 101.096 48.468C101.936 48.996 102.596 49.752 103.076 50.736H103.724V48.144H108.26V70.392C108.26 71.208 107.996 71.88 107.468 72.408C106.964 72.936 106.304 73.2 105.488 73.2H93.4639V68.88H102.752C103.4 68.88 103.724 68.52 103.724 67.8V63.408ZM98.9719 62.184C100.388 62.184 101.528 61.74 102.392 60.852C103.28 59.94 103.724 58.752 103.724 57.288V56.856C103.724 55.392 103.28 54.216 102.392 53.328C101.528 52.416 100.388 51.96 98.9719 51.96C97.5559 51.96 96.4039 52.404 95.5159 53.292C94.6519 54.156 94.2199 55.344 94.2199 56.856V57.288C94.2199 58.8 94.6519 60 95.5159 60.888C96.4039 61.752 97.5559 62.184 98.9719 62.184ZM112.159 48.144H119.719V50.736H120.367C120.703 49.752 121.267 48.996 122.059 48.468C122.875 47.916 123.847 47.64 124.975 47.64C126.751 47.64 128.179 48.204 129.259 49.332C130.339 50.436 130.879 52.128 130.879 54.408V55.2L126.199 55.632V55.128C126.199 54.144 125.947 53.364 125.443 52.788C124.939 52.188 124.183 51.888 123.175 51.888C122.167 51.888 121.375 52.236 120.799 52.932C120.223 53.628 119.935 54.624 119.935 55.92V61.68H124.039V66H111.727V61.68H115.399V52.464H112.159V48.144ZM169.205 48.144H173.741V66H169.205V63.408H168.557C167.765 65.472 166.061 66.504 163.445 66.504C162.557 66.504 161.729 66.36 160.961 66.072C160.193 65.784 159.521 65.34 158.945 64.74C158.369 64.14 157.913 63.396 157.577 62.508C157.265 61.596 157.109 60.528 157.109 59.304V48.144H161.645V58.368C161.645 59.64 161.945 60.636 162.545 61.356C163.145 62.052 164.045 62.4 165.245 62.4C166.613 62.4 167.609 61.968 168.233 61.104C168.881 60.216 169.205 59.016 169.205 57.504V48.144ZM183.688 66H179.152V48.144H183.688V50.808H184.336C184.744 49.8 185.404 49.02 186.316 48.468C187.228 47.916 188.296 47.64 189.52 47.64C190.384 47.64 191.188 47.784 191.932 48.072C192.7 48.336 193.372 48.756 193.948 49.332C194.524 49.908 194.968 50.64 195.28 51.528C195.616 52.416 195.784 53.472 195.784 54.696V66H191.248V55.848C191.248 54.576 190.936 53.58 190.312 52.86C189.712 52.116 188.836 51.744 187.684 51.744C186.34 51.744 185.332 52.2 184.66 53.112C184.012 54 183.688 55.2 183.688 56.712V66ZM214.011 63.408H213.363C213.171 63.816 212.931 64.212 212.643 64.596C212.379 64.956 212.019 65.28 211.563 65.568C211.131 65.856 210.603 66.084 209.979 66.252C209.379 66.42 208.647 66.504 207.783 66.504C206.679 66.504 205.647 66.312 204.687 65.928C203.751 65.52 202.923 64.932 202.203 64.164C201.507 63.372 200.955 62.412 200.547 61.284C200.163 60.156 199.971 58.86 199.971 57.396V56.748C199.971 55.308 200.175 54.024 200.583 52.896C201.015 51.768 201.591 50.82 202.311 50.052C203.055 49.26 203.907 48.66 204.867 48.252C205.851 47.844 206.883 47.64 207.963 47.64C209.403 47.64 210.543 47.916 211.383 48.468C212.223 48.996 212.883 49.752 213.363 50.736H214.011V40.8H218.547V66H214.011V63.408ZM209.259 62.184C210.675 62.184 211.815 61.74 212.679 60.852C213.567 59.94 214.011 58.752 214.011 57.288V56.856C214.011 55.392 213.567 54.216 212.679 53.328C211.815 52.416 210.675 51.96 209.259 51.96C207.843 51.96 206.691 52.404 205.803 53.292C204.939 54.156 204.507 55.344 204.507 56.856V57.288C204.507 58.8 204.939 60 205.803 60.888C206.691 61.752 207.843 62.184 209.259 62.184Z" fill="#27AE60"/>
<path d="M30.071 14L25.8284 18.2426C24.2663 19.8047 24.2663 22.3374 25.8284 23.8995L30.071 28.1421" stroke="#bad424" stroke-width="4.6" stroke-linecap="round"/>
<mask id="mask0" style="mask-type:alpha" maskUnits="userSpaceOnUse" x="19" y="10" width="22" height="22">
<path d="M30.071 14L25.8284 18.2426C24.2663 19.8047 24.2663 22.3374 25.8284 23.8995L30.071 28.1421" stroke="#EB5757" stroke-width="4.6" stroke-linecap="round"/>
</mask>
<g mask="url(#mask0)">
<g style="mix-blend-mode:darken" opacity="0.25">
<path d="M24.9678 22.4322L30.2001 17.2L29 30L24.9678 25.9678C23.9915 24.9915 23.9915 23.4086 24.9678 22.4322Z" fill="url(#paint0_linear)"/>
</g>
</g>
<path d="M161.071 14L156.828 18.2426C155.266 19.8047 155.266 22.3374 156.828 23.8995L161.071 28.1421" stroke="#bad424" stroke-width="4.6" stroke-linecap="round"/>
<mask id="mask1" style="mask-type:alpha" maskUnits="userSpaceOnUse" x="150" y="10" width="22" height="22">
<path d="M161.071 14L156.828 18.2426C155.266 19.8047 155.266 22.3374 156.828 23.8995L161.071 28.1421" stroke="#EB5757" stroke-width="4.6" stroke-linecap="round"/>
</mask>
<g mask="url(#mask1)">
<g style="mix-blend-mode:darken" opacity="0.25">
<path d="M155.968 22.4322L161.2 17.2L160 30L155.968 25.9678C154.992 24.9915 154.992 23.4086 155.968 22.4322Z" fill="url(#paint1_linear)"/>
</g>
</g>
<path d="M140.071 50L135.828 54.2426C134.266 55.8047 134.266 58.3374 135.828 59.8995L140.071 64.1421" stroke="#bad424" stroke-width="4.6" stroke-linecap="round"/>
<mask id="mask2" style="mask-type:alpha" maskUnits="userSpaceOnUse" x="129" y="46" width="22" height="22">
<path d="M140.071 50L135.828 54.2426C134.266 55.8047 134.266 58.3374 135.828 59.8995L140.071 64.1421" stroke="#EB5757" stroke-width="4.6" stroke-linecap="round"/>
</mask>
<g mask="url(#mask2)">
<g style="mix-blend-mode:darken" opacity="0.25">
<path d="M134.968 58.4322L140.2 53.2L139 66L134.968 61.9678C133.992 60.9915 133.992 59.4086 134.968 58.4322Z" fill="url(#paint2_linear)"/>
</g>
</g>
<path d="M36.071 28.1421L40.3137 23.8994C41.8758 22.3374 41.8758 19.8047 40.3137 18.2426L36.071 14" stroke="#bad424" stroke-width="4.6" stroke-linecap="round"/>
<mask id="mask3" style="mask-type:alpha" maskUnits="userSpaceOnUse" x="25" y="10" width="22" height="22">
<path d="M36.071 28.1421L40.3137 23.8994C41.8758 22.3374 41.8758 19.8047 40.3137 18.2426L36.071 14" stroke="#EB5757" stroke-width="4.6" stroke-linecap="round"/>
</mask>
<g mask="url(#mask3)">
<g style="mix-blend-mode:darken" opacity="0.25">
<path d="M41.1743 19.7098L35.942 24.9421L37.1421 12.1421L41.1743 16.1743C42.1506 17.1506 42.1506 18.7335 41.1743 19.7098Z" fill="url(#paint3_linear)"/>
</g>
</g>
<path d="M167.071 28.1421L171.314 23.8994C172.876 22.3374 172.876 19.8047 171.314 18.2426L167.071 14" stroke="#bad424" stroke-width="4.6" stroke-linecap="round"/>
<mask id="mask4" style="mask-type:alpha" maskUnits="userSpaceOnUse" x="156" y="10" width="22" height="22">
<path d="M167.071 28.1421L171.314 23.8994C172.876 22.3374 172.876 19.8047 171.314 18.2426L167.071 14" stroke="#EB5757" stroke-width="4.6" stroke-linecap="round"/>
</mask>
<g mask="url(#mask4)">
<g style="mix-blend-mode:darken" opacity="0.25">
<path d="M172.174 19.7098L166.942 24.9421L168.142 12.1421L172.174 16.1743C173.151 17.1506 173.151 18.7335 172.174 19.7098Z" fill="url(#paint4_linear)"/>
</g>
</g>
<path d="M146.071 64.1421L150.314 59.8994C151.876 58.3374 151.876 55.8047 150.314 54.2426L146.071 50" stroke="#27AE60" stroke-width="4.6" stroke-linecap="round"/>
<mask id="mask5" style="mask-type:alpha" maskUnits="userSpaceOnUse" x="135" y="46" width="22" height="22">
<path d="M146.071 64.1421L150.314 59.8994C151.876 58.3374 151.876 55.8047 150.314 54.2426L146.071 50" stroke="#EB5757" stroke-width="4.6" stroke-linecap="round"/>
</mask>
<g mask="url(#mask5)">
<g style="mix-blend-mode:darken" opacity="0.25">
<path d="M151.174 55.7098L145.942 60.9421L147.142 48.1421L151.174 52.1743C152.151 53.1506 152.151 54.7335 151.174 55.7098Z" fill="url(#paint5_linear)"/>
</g>
</g>
</g>
<defs>
<linearGradient id="paint0_linear" x1="25" y1="22" x2="28" y2="25" gradientUnits="userSpaceOnUse">
<stop/>
<stop offset="1" stop-opacity="0"/>
</linearGradient>
<linearGradient id="paint1_linear" x1="156" y1="22" x2="159" y2="25" gradientUnits="userSpaceOnUse">
<stop/>
<stop offset="1" stop-opacity="0"/>
</linearGradient>
<linearGradient id="paint2_linear" x1="135" y1="58" x2="138" y2="61" gradientUnits="userSpaceOnUse">
<stop/>
<stop offset="1" stop-opacity="0"/>
</linearGradient>
<linearGradient id="paint3_linear" x1="41.1421" y1="20.1421" x2="38.1421" y2="17.1421" gradientUnits="userSpaceOnUse">
<stop/>
<stop offset="1" stop-opacity="0"/>
</linearGradient>
<linearGradient id="paint4_linear" x1="172.142" y1="20.1421" x2="169.142" y2="17.1421" gradientUnits="userSpaceOnUse">
<stop/>
<stop offset="1" stop-opacity="0"/>
</linearGradient>
<linearGradient id="paint5_linear" x1="151.142" y1="56.1421" x2="148.142" y2="53.1421" gradientUnits="userSpaceOnUse">
<stop/>
<stop offset="1" stop-opacity="0"/>
</linearGradient>
<clipPath id="clip0">
<rect width="221" height="78" fill="white"/>
</clipPath>
</defs>
</svg>
