<svg width="221" height="109" viewBox="0 0 221 109" fill="none" xmlns="http://www.w3.org/2000/svg">
<g clip-path="url(#clip0)">
<path d="M11.088 26.184C12 26.184 12.744 26.052 13.32 25.788C13.92 25.5 14.376 25.128 14.688 24.672C15.024 24.192 15.252 23.652 15.372 23.052C15.492 22.428 15.552 21.792 15.552 21.144V20.496H20.304V21.144C20.304 24.144 19.512 26.46 17.928 28.092C16.368 29.7 14.088 30.504 11.088 30.504C8.208 30.504 5.928 29.628 4.248 27.876C2.568 26.124 1.728 23.568 1.728 20.208V14.592C1.728 12.984 1.944 11.544 2.376 10.272C2.808 8.976 3.432 7.896 4.248 7.032C5.064 6.144 6.048 5.472 7.2 5.016C8.352 4.536 9.648 4.296 11.088 4.296C12.576 4.296 13.896 4.512 15.048 4.944C16.2 5.376 17.16 6 17.928 6.816C18.72 7.632 19.308 8.616 19.692 9.768C20.1 10.92 20.304 12.216 20.304 13.656V14.304H15.552V13.656C15.552 13.056 15.48 12.456 15.336 11.856C15.192 11.256 14.952 10.716 14.616 10.236C14.28 9.756 13.824 9.372 13.248 9.084C12.672 8.772 11.952 8.616 11.088 8.616C10.296 8.616 9.612 8.772 9.036 9.084C8.46 9.372 7.98 9.78 7.596 10.308C7.212 10.812 6.924 11.412 6.732 12.108C6.564 12.78 6.48 13.488 6.48 14.232V20.568C6.48 21.384 6.564 22.14 6.732 22.836C6.9 23.508 7.164 24.096 7.524 24.6C7.884 25.104 8.352 25.5 8.928 25.788C9.528 26.052 10.248 26.184 11.088 26.184ZM59.7099 27.408H59.0619C58.8699 27.816 58.6299 28.212 58.3419 28.596C58.0779 28.956 57.7179 29.28 57.2619 29.568C56.8299 29.856 56.3019 30.084 55.6779 30.252C55.0779 30.42 54.3459 30.504 53.4819 30.504C52.3779 30.504 51.3459 30.312 50.3859 29.928C49.4499 29.52 48.6219 28.932 47.9019 28.164C47.2059 27.372 46.6539 26.412 46.2459 25.284C45.8619 24.156 45.6699 22.86 45.6699 21.396V20.748C45.6699 19.308 45.8739 18.024 46.2819 16.896C46.7139 15.768 47.2899 14.82 48.0099 14.052C48.7539 13.26 49.6059 12.66 50.5659 12.252C51.5499 11.844 52.5819 11.64 53.6619 11.64C55.1019 11.64 56.2419 11.916 57.0819 12.468C57.9219 12.996 58.5819 13.752 59.0619 14.736H59.7099V4.8H64.2459V30H59.7099V27.408ZM54.9579 26.184C56.3739 26.184 57.5139 25.74 58.3779 24.852C59.2659 23.94 59.7099 22.752 59.7099 21.288V20.856C59.7099 19.392 59.2659 18.216 58.3779 17.328C57.5139 16.416 56.3739 15.96 54.9579 15.96C53.5419 15.96 52.3899 16.404 51.5019 17.292C50.6379 18.156 50.2059 19.344 50.2059 20.856V21.288C50.2059 22.8 50.6379 24 51.5019 24.888C52.3899 25.752 53.5419 26.184 54.9579 26.184ZM69.2609 25.68H75.3089V16.464H69.6929V12.144H79.8449V25.68H85.0289V30H69.2609V25.68ZM80.9609 6.852C80.9609 7.332 80.8649 7.788 80.6729 8.22C80.5049 8.628 80.2649 8.988 79.9529 9.3C79.6409 9.588 79.2689 9.828 78.8369 10.02C78.4289 10.188 77.9969 10.272 77.5409 10.272C77.0609 10.272 76.6169 10.188 76.2089 10.02C75.8009 9.828 75.4409 9.588 75.1289 9.3C74.8169 8.988 74.5649 8.628 74.3729 8.22C74.2049 7.788 74.1209 7.332 74.1209 6.852C74.1209 6.372 74.2049 5.928 74.3729 5.52C74.5649 5.088 74.8169 4.728 75.1289 4.44C75.4409 4.128 75.8009 3.888 76.2089 3.72C76.6169 3.528 77.0609 3.432 77.5409 3.432C77.9969 3.432 78.4289 3.528 78.8369 3.72C79.2689 3.888 79.6409 4.128 79.9529 4.44C80.2649 4.728 80.5049 5.088 80.6729 5.52C80.8649 5.928 80.9609 6.372 80.9609 6.852ZM95.5159 30H90.9799V12.144H95.5159V14.808H96.1639C96.5719 13.8 97.2319 13.02 98.1439 12.468C99.0559 11.916 100.124 11.64 101.348 11.64C102.212 11.64 103.016 11.784 103.76 12.072C104.528 12.336 105.2 12.756 105.776 13.332C106.352 13.908 106.796 14.64 107.108 15.528C107.444 16.416 107.612 17.472 107.612 18.696V30H103.076V19.848C103.076 18.576 102.764 17.58 102.14 16.86C101.54 16.116 100.664 15.744 99.5119 15.744C98.1679 15.744 97.1599 16.2 96.4879 17.112C95.8399 18 95.5159 19.2 95.5159 20.712V30ZM125.767 27.408H125.119C124.927 27.816 124.687 28.212 124.399 28.596C124.135 28.956 123.775 29.28 123.319 29.568C122.887 29.856 122.359 30.084 121.735 30.252C121.135 30.42 120.403 30.504 119.539 30.504C118.435 30.504 117.403 30.312 116.443 29.928C115.507 29.52 114.679 28.932 113.959 28.164C113.263 27.372 112.711 26.412 112.303 25.284C111.919 24.156 111.727 22.86 111.727 21.396V20.748C111.727 19.308 111.931 18.024 112.339 16.896C112.771 15.768 113.347 14.82 114.067 14.052C114.811 13.26 115.663 12.66 116.623 12.252C117.607 11.844 118.639 11.64 119.719 11.64C121.159 11.64 122.299 11.916 123.139 12.468C123.979 12.996 124.639 13.752 125.119 14.736H125.767V12.144H130.303V34.392C130.303 35.208 130.039 35.88 129.511 36.408C129.007 36.936 128.347 37.2 127.531 37.2H115.507V32.88H124.795C125.443 32.88 125.767 32.52 125.767 31.8V27.408ZM121.015 26.184C122.431 26.184 123.571 25.74 124.435 24.852C125.323 23.94 125.767 22.752 125.767 21.288V20.856C125.767 19.392 125.323 18.216 124.435 17.328C123.571 16.416 122.431 15.96 121.015 15.96C119.599 15.96 118.447 16.404 117.559 17.292C116.695 18.156 116.263 19.344 116.263 20.856V21.288C116.263 22.8 116.695 24 117.559 24.888C118.447 25.752 119.599 26.184 121.015 26.184ZM135.426 4.8H151.554V9.336H140.178V15.096H151.338V19.632H140.178V30H135.426V4.8ZM183.688 30H179.152V12.144H183.688V14.808H184.336C184.744 13.8 185.404 13.02 186.316 12.468C187.228 11.916 188.296 11.64 189.52 11.64C190.384 11.64 191.188 11.784 191.932 12.072C192.7 12.336 193.372 12.756 193.948 13.332C194.524 13.908 194.968 14.64 195.28 15.528C195.616 16.416 195.784 17.472 195.784 18.696V30H191.248V19.848C191.248 18.576 190.936 17.58 190.312 16.86C189.712 16.116 188.836 15.744 187.684 15.744C186.34 15.744 185.332 16.2 184.66 17.112C184.012 18 183.688 19.2 183.688 20.712V30ZM200.691 12.144H205.983V4.8H210.519V12.144H216.963V16.464H210.519V24.6C210.519 25.32 210.843 25.68 211.491 25.68H216.315V30H208.755C207.939 30 207.267 29.736 206.739 29.208C206.235 28.68 205.983 28.008 205.983 27.192V16.464H200.691V12.144Z" fill="#27AE60"/>
<path d="M7.344 56.496V66H2.592V40.8H12.456C13.752 40.8 14.88 41.016 15.84 41.448C16.8 41.856 17.592 42.408 18.216 43.104C18.864 43.776 19.344 44.556 19.656 45.444C19.992 46.308 20.16 47.196 20.16 48.108V48.972C20.16 49.908 19.992 50.832 19.656 51.744C19.344 52.632 18.864 53.436 18.216 54.156C17.592 54.852 16.8 55.416 15.84 55.848C14.88 56.28 13.752 56.496 12.456 56.496H7.344ZM7.344 51.96H11.988C13.044 51.96 13.872 51.672 14.472 51.096C15.096 50.52 15.408 49.776 15.408 48.864V48.432C15.408 47.52 15.096 46.776 14.472 46.2C13.872 45.624 13.044 45.336 11.988 45.336H7.344V51.96ZM24.743 61.68H31.007V45.12H24.959V40.8H35.543V61.68H41.375V66H24.743V61.68ZM58.4499 63.408C57.9699 64.536 57.2979 65.34 56.4339 65.82C55.5699 66.276 54.5619 66.504 53.4099 66.504C52.3299 66.504 51.3099 66.3 50.3499 65.892C49.4139 65.484 48.5859 64.884 47.8659 64.092C47.1459 63.3 46.5699 62.34 46.1379 61.212C45.7299 60.084 45.5259 58.8 45.5259 57.36V56.784C45.5259 55.368 45.7299 54.096 46.1379 52.968C46.5459 51.84 47.0979 50.88 47.7939 50.088C48.4899 49.296 49.2939 48.696 50.2059 48.288C51.1419 47.856 52.1379 47.64 53.1939 47.64C54.4659 47.64 55.4859 47.856 56.2539 48.288C57.0459 48.72 57.6699 49.392 58.1259 50.304H58.7739V48.144H63.3099V60.6C63.3099 61.32 63.6339 61.68 64.2819 61.68H64.9659V66H61.8699C61.0539 66 60.3819 65.76 59.8539 65.28C59.3499 64.8 59.0979 64.176 59.0979 63.408H58.4499ZM54.4179 62.184C55.7379 62.184 56.7939 61.752 57.5859 60.888C58.3779 60 58.7739 58.8 58.7739 57.288V56.856C58.7739 55.344 58.3779 54.156 57.5859 53.292C56.7939 52.404 55.7379 51.96 54.4179 51.96C53.0979 51.96 52.0419 52.404 51.2499 53.292C50.4579 54.156 50.0619 55.344 50.0619 56.856V57.288C50.0619 58.8 50.4579 60 51.2499 60.888C52.0419 61.752 53.0979 62.184 54.4179 62.184ZM81.0329 48.144H85.5689V70.392C85.5689 71.208 85.3049 71.88 84.7769 72.408C84.2729 72.936 83.6129 73.2 82.7969 73.2H72.1769V68.88H80.0609C80.7089 68.88 81.0329 68.52 81.0329 67.8V63.408H80.3849C79.5929 65.472 77.8889 66.504 75.2729 66.504C74.3849 66.504 73.5569 66.36 72.7889 66.072C72.0209 65.784 71.3489 65.34 70.7729 64.74C70.1969 64.14 69.7409 63.396 69.4049 62.508C69.0929 61.596 68.9369 60.528 68.9369 59.304V48.144H73.4729V58.368C73.4729 59.64 73.7729 60.636 74.3729 61.356C74.9729 62.052 75.8729 62.4 77.0729 62.4C78.4409 62.4 79.4369 61.968 80.0609 61.104C80.7089 60.216 81.0329 59.016 81.0329 57.504V48.144ZM103.724 63.408H103.076C102.884 63.816 102.644 64.212 102.356 64.596C102.092 64.956 101.732 65.28 101.276 65.568C100.844 65.856 100.316 66.084 99.6919 66.252C99.0919 66.42 98.3599 66.504 97.4959 66.504C96.3919 66.504 95.3599 66.312 94.3999 65.928C93.4639 65.52 92.6359 64.932 91.9159 64.164C91.2199 63.372 90.6679 62.412 90.2599 61.284C89.8759 60.156 89.6839 58.86 89.6839 57.396V56.748C89.6839 55.308 89.8879 54.024 90.2959 52.896C90.7279 51.768 91.3039 50.82 92.0239 50.052C92.7679 49.26 93.6199 48.66 94.5799 48.252C95.5639 47.844 96.5959 47.64 97.6759 47.64C99.1159 47.64 100.256 47.916 101.096 48.468C101.936 48.996 102.596 49.752 103.076 50.736H103.724V48.144H108.26V70.392C108.26 71.208 107.996 71.88 107.468 72.408C106.964 72.936 106.304 73.2 105.488 73.2H93.4639V68.88H102.752C103.4 68.88 103.724 68.52 103.724 67.8V63.408ZM98.9719 62.184C100.388 62.184 101.528 61.74 102.392 60.852C103.28 59.94 103.724 58.752 103.724 57.288V56.856C103.724 55.392 103.28 54.216 102.392 53.328C101.528 52.416 100.388 51.96 98.9719 51.96C97.5559 51.96 96.4039 52.404 95.5159 53.292C94.6519 54.156 94.2199 55.344 94.2199 56.856V57.288C94.2199 58.8 94.6519 60 95.5159 60.888C96.4039 61.752 97.5559 62.184 98.9719 62.184ZM112.159 48.144H119.719V50.736H120.367C120.703 49.752 121.267 48.996 122.059 48.468C122.875 47.916 123.847 47.64 124.975 47.64C126.751 47.64 128.179 48.204 129.259 49.332C130.339 50.436 130.879 52.128 130.879 54.408V55.2L126.199 55.632V55.128C126.199 54.144 125.947 53.364 125.443 52.788C124.939 52.188 124.183 51.888 123.175 51.888C122.167 51.888 121.375 52.236 120.799 52.932C120.223 53.628 119.935 54.624 119.935 55.92V61.68H124.039V66H111.727V61.68H115.399V52.464H112.159V48.144ZM169.205 48.144H173.741V66H169.205V63.408H168.557C167.765 65.472 166.061 66.504 163.445 66.504C162.557 66.504 161.729 66.36 160.961 66.072C160.193 65.784 159.521 65.34 158.945 64.74C158.369 64.14 157.913 63.396 157.577 62.508C157.265 61.596 157.109 60.528 157.109 59.304V48.144H161.645V58.368C161.645 59.64 161.945 60.636 162.545 61.356C163.145 62.052 164.045 62.4 165.245 62.4C166.613 62.4 167.609 61.968 168.233 61.104C168.881 60.216 169.205 59.016 169.205 57.504V48.144ZM183.688 66H179.152V48.144H183.688V50.808H184.336C184.744 49.8 185.404 49.02 186.316 48.468C187.228 47.916 188.296 47.64 189.52 47.64C190.384 47.64 191.188 47.784 191.932 48.072C192.7 48.336 193.372 48.756 193.948 49.332C194.524 49.908 194.968 50.64 195.28 51.528C195.616 52.416 195.784 53.472 195.784 54.696V66H191.248V55.848C191.248 54.576 190.936 53.58 190.312 52.86C189.712 52.116 188.836 51.744 187.684 51.744C186.34 51.744 185.332 52.2 184.66 53.112C184.012 54 183.688 55.2 183.688 56.712V66ZM214.011 63.408H213.363C213.171 63.816 212.931 64.212 212.643 64.596C212.379 64.956 212.019 65.28 211.563 65.568C211.131 65.856 210.603 66.084 209.979 66.252C209.379 66.42 208.647 66.504 207.783 66.504C206.679 66.504 205.647 66.312 204.687 65.928C203.751 65.52 202.923 64.932 202.203 64.164C201.507 63.372 200.955 62.412 200.547 61.284C200.163 60.156 199.971 58.86 199.971 57.396V56.748C199.971 55.308 200.175 54.024 200.583 52.896C201.015 51.768 201.591 50.82 202.311 50.052C203.055 49.26 203.907 48.66 204.867 48.252C205.851 47.844 206.883 47.64 207.963 47.64C209.403 47.64 210.543 47.916 211.383 48.468C212.223 48.996 212.883 49.752 213.363 50.736H214.011V40.8H218.547V66H214.011V63.408ZM209.259 62.184C210.675 62.184 211.815 61.74 212.679 60.852C213.567 59.94 214.011 58.752 214.011 57.288V56.856C214.011 55.392 213.567 54.216 212.679 53.328C211.815 52.416 210.675 51.96 209.259 51.96C207.843 51.96 206.691 52.404 205.803 53.292C204.939 54.156 204.507 55.344 204.507 56.856V57.288C204.507 58.8 204.939 60 205.803 60.888C206.691 61.752 207.843 62.184 209.259 62.184Z" fill="#27AE60"/>
<path d="M30.071 14L25.8284 18.2426C24.2663 19.8047 24.2663 22.3374 25.8284 23.8995L30.071 28.1421" stroke="#27AE60" stroke-width="4.6" stroke-linecap="round"/>
<mask id="mask0" style="mask-type:alpha" maskUnits="userSpaceOnUse" x="22" y="11" width="11" height="20">
<path d="M30.071 14L25.8284 18.2426C24.2663 19.8047 24.2663 22.3374 25.8284 23.8995L30.071 28.1421" stroke="#EB5757" stroke-width="4.6" stroke-linecap="round"/>
</mask>
<g mask="url(#mask0)">
<g style="mix-blend-mode:darken" opacity="0.25">
<path d="M24.9678 22.4322L30.2001 17.2L29 30L24.9678 25.9678C23.9915 24.9915 23.9915 23.4086 24.9678 22.4322Z" fill="url(#paint0_linear)"/>
</g>
</g>
<path d="M161.071 14L156.828 18.2426C155.266 19.8047 155.266 22.3374 156.828 23.8995L161.071 28.1421" stroke="#27AE60" stroke-width="4.6" stroke-linecap="round"/>
<mask id="mask1" style="mask-type:alpha" maskUnits="userSpaceOnUse" x="153" y="11" width="11" height="20">
<path d="M161.071 14L156.828 18.2426C155.266 19.8047 155.266 22.3374 156.828 23.8995L161.071 28.1421" stroke="#EB5757" stroke-width="4.6" stroke-linecap="round"/>
</mask>
<g mask="url(#mask1)">
<g style="mix-blend-mode:darken" opacity="0.25">
<path d="M155.968 22.4322L161.2 17.2L160 30L155.968 25.9678C154.992 24.9915 154.992 23.4086 155.968 22.4322Z" fill="url(#paint1_linear)"/>
</g>
</g>
<path d="M140.071 50L135.828 54.2426C134.266 55.8047 134.266 58.3374 135.828 59.8995L140.071 64.1421" stroke="#27AE60" stroke-width="4.6" stroke-linecap="round"/>
<mask id="mask2" style="mask-type:alpha" maskUnits="userSpaceOnUse" x="132" y="47" width="11" height="20">
<path d="M140.071 50L135.828 54.2426C134.266 55.8047 134.266 58.3374 135.828 59.8995L140.071 64.1421" stroke="#EB5757" stroke-width="4.6" stroke-linecap="round"/>
</mask>
<g mask="url(#mask2)">
<g style="mix-blend-mode:darken" opacity="0.25">
<path d="M134.968 58.4322L140.2 53.2L139 66L134.968 61.9678C133.992 60.9915 133.992 59.4086 134.968 58.4322Z" fill="url(#paint2_linear)"/>
</g>
</g>
<path d="M36.071 28.1421L40.3137 23.8994C41.8758 22.3374 41.8758 19.8047 40.3137 18.2426L36.071 14" stroke="#27AE60" stroke-width="4.6" stroke-linecap="round"/>
<mask id="mask3" style="mask-type:alpha" maskUnits="userSpaceOnUse" x="33" y="11" width="11" height="20">
<path d="M36.071 28.1421L40.3137 23.8994C41.8758 22.3374 41.8758 19.8047 40.3137 18.2426L36.071 14" stroke="#EB5757" stroke-width="4.6" stroke-linecap="round"/>
</mask>
<g mask="url(#mask3)">
<g style="mix-blend-mode:darken" opacity="0.25">
<path d="M41.1743 19.7098L35.942 24.9421L37.1421 12.1421L41.1743 16.1743C42.1506 17.1506 42.1506 18.7335 41.1743 19.7098Z" fill="url(#paint3_linear)"/>
</g>
</g>
<path d="M167.071 28.1421L171.314 23.8994C172.876 22.3374 172.876 19.8047 171.314 18.2426L167.071 14" stroke="#27AE60" stroke-width="4.6" stroke-linecap="round"/>
<mask id="mask4" style="mask-type:alpha" maskUnits="userSpaceOnUse" x="164" y="11" width="11" height="20">
<path d="M167.071 28.1421L171.314 23.8994C172.876 22.3374 172.876 19.8047 171.314 18.2426L167.071 14" stroke="#EB5757" stroke-width="4.6" stroke-linecap="round"/>
</mask>
<g mask="url(#mask4)">
<g style="mix-blend-mode:darken" opacity="0.25">
<path d="M172.174 19.7098L166.942 24.9421L168.142 12.1421L172.174 16.1743C173.151 17.1506 173.151 18.7335 172.174 19.7098Z" fill="url(#paint4_linear)"/>
</g>
</g>
<path d="M146.071 64.1421L150.314 59.8994C151.876 58.3374 151.876 55.8047 150.314 54.2426L146.071 50" stroke="#27AE60" stroke-width="4.6" stroke-linecap="round"/>
<mask id="mask5" style="mask-type:alpha" maskUnits="userSpaceOnUse" x="143" y="47" width="11" height="20">
<path d="M146.071 64.1421L150.314 59.8994C151.876 58.3374 151.876 55.8047 150.314 54.2426L146.071 50" stroke="#EB5757" stroke-width="4.6" stroke-linecap="round"/>
</mask>
<g mask="url(#mask5)">
<g style="mix-blend-mode:darken" opacity="0.25">
<path d="M151.174 55.7098L145.942 60.9421L147.142 48.1421L151.174 52.1743C152.151 53.1506 152.151 54.7335 151.174 55.7098Z" fill="url(#paint5_linear)"/>
</g>
</g>
<path d="M29.698 100.092C29.614 100.404 29.572 100.644 29.572 100.812C29.572 101.076 29.662 101.274 29.842 101.406C30.022 101.538 30.328 101.616 30.76 101.64L30.688 102C29.86 101.964 28.816 101.946 27.556 101.946C25.996 101.946 24.856 101.964 24.136 102L24.208 101.64C24.64 101.616 24.964 101.568 25.18 101.496C25.396 101.424 25.564 101.286 25.684 101.082C25.816 100.878 25.942 100.548 26.062 100.092L28.438 91.164C28.522 90.768 28.564 90.492 28.564 90.336C28.564 90.096 28.48 89.922 28.312 89.814C28.144 89.706 27.832 89.64 27.376 89.616L27.466 89.256C28.162 89.292 29.26 89.31 30.76 89.31C31.336 89.31 31.768 89.304 32.056 89.292L33.388 89.274C34.972 89.274 36.142 89.496 36.898 89.94C37.666 90.384 38.05 91.068 38.05 91.992C38.05 92.904 37.732 93.726 37.096 94.458C36.472 95.19 35.59 95.772 34.45 96.204C33.322 96.624 32.02 96.852 30.544 96.888L29.698 100.092ZM30.652 96.51C31.492 96.45 32.182 96.162 32.722 95.646C33.262 95.118 33.652 94.482 33.892 93.738C34.132 92.994 34.252 92.25 34.252 91.506C34.252 90.882 34.138 90.414 33.91 90.102C33.694 89.778 33.346 89.616 32.866 89.616C32.674 89.616 32.542 89.676 32.47 89.796C32.398 89.904 32.32 90.15 32.236 90.534C32.212 90.618 32.188 90.714 32.164 90.822C32.14 90.93 32.11 91.044 32.074 91.164L30.652 96.51ZM44.9748 92.406C45.5148 92.406 45.9408 92.574 46.2528 92.91C46.5648 93.234 46.7208 93.648 46.7208 94.152C46.7208 94.764 46.5288 95.292 46.1448 95.736C45.7608 96.18 45.2748 96.402 44.6868 96.402C44.2428 96.402 43.9068 96.288 43.6788 96.06C43.4508 95.832 43.3368 95.496 43.3368 95.052C43.3368 94.524 43.5288 94.044 43.9128 93.612C44.2968 93.18 44.7588 92.916 45.2988 92.82C45.1548 92.784 45.0708 92.766 45.0468 92.766C44.6628 92.766 44.3148 92.844 44.0028 93C43.6908 93.156 43.3428 93.54 42.9588 94.152C42.5868 94.764 42.1908 95.7 41.7708 96.96L40.4568 102H37.2708L39.4668 94.188C39.5148 94.008 39.5388 93.852 39.5388 93.72C39.5388 93.528 39.4608 93.432 39.3048 93.432C39.1128 93.432 38.9388 93.516 38.7828 93.684C38.6268 93.852 38.4708 94.146 38.3148 94.566L37.9008 95.664H37.5588L38.0628 94.26C38.5068 93.024 39.4008 92.406 40.7448 92.406C41.3208 92.406 41.7408 92.562 42.0048 92.874C42.2688 93.186 42.4008 93.588 42.4008 94.08C42.4008 94.248 42.3948 94.374 42.3828 94.458C42.7308 93.702 43.1028 93.174 43.4988 92.874C43.9068 92.562 44.3988 92.406 44.9748 92.406ZM46.1314 99.192C46.1314 98.172 46.3654 97.14 46.8334 96.096C47.3014 95.04 48.0034 94.164 48.9394 93.468C49.8874 92.76 51.0394 92.406 52.3954 92.406C53.4394 92.406 54.2314 92.67 54.7714 93.198C55.3234 93.726 55.5994 94.482 55.5994 95.466C55.5994 96.486 55.3654 97.524 54.8974 98.58C54.4294 99.624 53.7214 100.5 52.7734 101.208C51.8374 101.904 50.6914 102.252 49.3354 102.252C48.2914 102.252 47.4934 101.988 46.9414 101.46C46.4014 100.932 46.1314 100.176 46.1314 99.192ZM52.3054 92.766C51.9694 92.766 51.5434 93.216 51.0274 94.116C50.5114 95.016 50.0614 96.108 49.6774 97.392C49.3054 98.664 49.1194 99.828 49.1194 100.884C49.1194 101.256 49.1434 101.52 49.1914 101.676C49.2514 101.82 49.3414 101.892 49.4614 101.892C49.7854 101.892 50.1994 101.46 50.7034 100.596C51.2194 99.72 51.6634 98.652 52.0354 97.392C52.4194 96.132 52.6114 94.938 52.6114 93.81C52.6114 93.39 52.5814 93.114 52.5214 92.982C52.4734 92.838 52.4014 92.766 52.3054 92.766ZM53.631 105.024C54.147 105.024 54.603 104.838 54.999 104.466C55.395 104.106 55.689 103.536 55.881 102.756L58.275 94.188C58.335 93.972 58.365 93.816 58.365 93.72C58.365 93.528 58.275 93.432 58.095 93.432C57.915 93.432 57.747 93.522 57.591 93.702C57.435 93.882 57.279 94.17 57.123 94.566L56.709 95.664H56.367L56.871 94.26C57.111 93.612 57.471 93.144 57.951 92.856C58.443 92.556 58.989 92.406 59.589 92.406C60.225 92.406 60.681 92.556 60.957 92.856C61.233 93.144 61.371 93.528 61.371 94.008C61.371 94.296 61.323 94.602 61.227 94.926L59.679 100.56C59.415 101.616 59.115 102.432 58.779 103.008C58.455 103.584 58.005 104.076 57.429 104.484C56.577 105.084 55.281 105.384 53.541 105.384L53.631 105.024ZM58.959 89.832C58.959 89.208 59.157 88.734 59.553 88.41C59.961 88.086 60.495 87.924 61.155 87.924C61.683 87.924 62.079 88.026 62.343 88.23C62.619 88.434 62.757 88.74 62.757 89.148C62.757 89.7 62.547 90.15 62.127 90.498C61.707 90.846 61.179 91.02 60.543 91.02C60.027 91.02 59.631 90.918 59.355 90.714C59.091 90.51 58.959 90.216 58.959 89.832ZM70.8274 93.99C70.8274 94.998 70.2634 95.88 69.1354 96.636C68.0194 97.38 66.6874 97.932 65.1394 98.292C65.1034 98.616 65.0854 98.922 65.0854 99.21C65.0854 99.87 65.2114 100.326 65.4634 100.578C65.7154 100.83 66.0874 100.956 66.5794 100.956C66.8794 100.956 67.2634 100.854 67.7314 100.65C68.2114 100.446 68.6674 100.128 69.0994 99.696L69.3874 99.84C68.9314 100.524 68.3134 101.1 67.5334 101.568C66.7534 102.024 65.8534 102.252 64.8334 102.252C63.9454 102.252 63.2014 102.03 62.6014 101.586C62.0134 101.142 61.7194 100.518 61.7194 99.714C61.7194 98.538 62.0194 97.386 62.6194 96.258C63.2314 95.118 64.0594 94.194 65.1034 93.486C66.1594 92.766 67.3234 92.406 68.5954 92.406C69.2674 92.406 69.8074 92.544 70.2154 92.82C70.6234 93.084 70.8274 93.474 70.8274 93.99ZM68.1994 92.748C67.8634 92.748 67.4854 93.006 67.0654 93.522C66.6574 94.038 66.2794 94.704 65.9314 95.52C65.5834 96.336 65.3374 97.152 65.1934 97.968C65.8294 97.596 66.3814 97.188 66.8494 96.744C67.3534 96.252 67.7494 95.706 68.0374 95.106C68.3374 94.506 68.4874 93.87 68.4874 93.198C68.4874 92.898 68.3914 92.748 68.1994 92.748ZM77.5791 92.766C76.9911 92.766 76.4271 93.09 75.8871 93.738C75.3591 94.374 74.9271 95.202 74.5911 96.222C74.2671 97.23 74.1051 98.256 74.1051 99.3C74.1051 99.924 74.2311 100.386 74.4831 100.686C74.7351 100.986 75.0891 101.136 75.5451 101.136C75.9291 101.136 76.2951 101.028 76.6431 100.812C76.9911 100.596 77.3451 100.224 77.7051 99.696L78.0651 99.84C77.0331 101.448 75.6591 102.252 73.9431 102.252C72.9831 102.252 72.2091 102.018 71.6211 101.55C71.0331 101.07 70.7391 100.356 70.7391 99.408C70.7391 98.34 71.0151 97.266 71.5671 96.186C72.1191 95.094 72.8991 94.194 73.9071 93.486C74.9151 92.766 76.0611 92.406 77.3451 92.406C78.0651 92.406 78.6351 92.586 79.0551 92.946C79.4751 93.306 79.6851 93.75 79.6851 94.278C79.6851 94.662 79.5891 95.04 79.3971 95.412C79.2051 95.772 78.9471 96.066 78.6231 96.294C78.2991 96.522 77.9511 96.636 77.5791 96.636C77.2431 96.636 76.9551 96.528 76.7151 96.312C76.4751 96.084 76.3551 95.772 76.3551 95.376C76.3551 94.812 76.5351 94.314 76.8951 93.882C77.2551 93.438 77.6871 93.138 78.1911 92.982C78.0351 92.838 77.8311 92.766 77.5791 92.766ZM82.8959 100.47C82.8599 100.59 82.8419 100.704 82.8419 100.812C82.8419 101.088 82.9679 101.226 83.2199 101.226C83.4599 101.226 83.6999 101.1 83.9399 100.848C84.1799 100.584 84.3719 100.254 84.5159 99.858L84.8039 99.084H85.1459L84.8039 100.074C84.5639 100.77 84.1979 101.31 83.7059 101.694C83.2139 102.066 82.6259 102.252 81.9419 102.252C81.2699 102.252 80.7659 102.078 80.4299 101.73C80.1059 101.382 79.9439 100.908 79.9439 100.308C79.9439 99.996 80.0039 99.612 80.1239 99.156L81.8879 93.018H80.2499L80.3399 92.658H81.9959L82.7519 90.012C84.0119 90 85.1039 89.916 86.0279 89.76L85.1819 92.658H86.9819L86.9279 93.018H85.0739L82.8959 100.47ZM98.0891 92.406C98.9171 92.406 99.5351 92.658 99.9431 93.162C100.351 93.666 100.555 94.392 100.555 95.34C100.555 96.324 100.315 97.356 99.8351 98.436C99.3671 99.516 98.6891 100.422 97.8011 101.154C96.9131 101.886 95.8931 102.252 94.7411 102.252C94.4531 102.252 94.1831 102.216 93.9311 102.144C93.6791 102.072 93.4691 101.976 93.3011 101.856C93.0611 101.796 92.8271 101.766 92.5991 101.766C91.9751 101.766 91.2131 101.94 90.3131 102.288L90.0431 102.162C90.1871 101.874 90.3191 101.52 90.4391 101.1L93.7511 89.994C93.8111 89.778 93.8411 89.61 93.8411 89.49C93.8411 89.25 93.7451 89.076 93.5531 88.968C93.3731 88.86 93.0611 88.806 92.6171 88.806L92.7431 88.428C93.6911 88.416 94.5491 88.35 95.3171 88.23C96.0851 88.11 96.8351 87.93 97.5671 87.69L95.6411 94.224C95.9891 93.6 96.3611 93.144 96.7571 92.856C97.1531 92.556 97.5971 92.406 98.0891 92.406ZM93.9311 101.658C94.4471 101.658 94.9571 101.286 95.4611 100.542C95.9771 99.786 96.3971 98.856 96.7211 97.752C97.0451 96.648 97.2071 95.61 97.2071 94.638C97.2071 94.242 97.1711 93.972 97.0991 93.828C97.0391 93.684 96.9311 93.612 96.7751 93.612C96.5471 93.612 96.3071 93.762 96.0551 94.062C95.8031 94.35 95.5571 94.758 95.3171 95.286L93.4631 101.586C93.6551 101.634 93.8111 101.658 93.9311 101.658ZM108.155 92.406C109.067 92.406 109.523 92.988 109.523 94.152C109.523 95.196 109.175 96.462 108.479 97.95C107.795 99.426 106.961 100.752 105.977 101.928C105.221 102.828 104.429 103.554 103.601 104.106C102.785 104.67 101.969 105.048 101.153 105.24C100.745 105.336 100.391 105.384 100.091 105.384C99.6107 105.384 99.2447 105.276 98.9927 105.06C98.7287 104.856 98.5967 104.568 98.5967 104.196C98.5967 103.836 98.7287 103.524 98.9927 103.26C99.2567 103.008 99.6047 102.882 100.037 102.882C100.901 102.882 101.639 103.41 102.251 104.466C103.031 104.118 103.727 103.668 104.339 103.116L102.881 94.206C102.821 93.894 102.767 93.69 102.719 93.594C102.683 93.486 102.611 93.432 102.503 93.432C102.383 93.432 102.275 93.504 102.179 93.648C102.095 93.792 101.963 94.098 101.783 94.566L101.405 95.574H101.063L101.513 94.26C101.753 93.576 102.059 93.096 102.431 92.82C102.815 92.544 103.283 92.406 103.835 92.406C104.435 92.406 104.909 92.568 105.257 92.892C105.605 93.204 105.839 93.756 105.959 94.548L106.733 100.308C107.525 99.156 108.155 97.92 108.623 96.6C108.059 96.288 107.603 95.892 107.255 95.412C106.919 94.932 106.751 94.422 106.751 93.882C106.751 93.426 106.871 93.066 107.111 92.802C107.363 92.538 107.711 92.406 108.155 92.406Z" fill="black"/>
<g clip-path="url(#clip1)">
<path d="M114.425 102.134H118.201L121.422 89.6566C123.466 89.6566 125.337 89.5508 126.445 88.1762L126.168 88C125.753 88.5639 124.644 88.9869 124.124 89.0926C123.016 89.3041 121.076 89.2689 119.24 89.1279C117.681 89.0222 116.469 88.9517 115.603 88.9517C114.078 88.9517 112.797 89.2689 112 90.4673L112.416 90.6435C112.935 89.5156 114.252 89.2689 115.672 89.2689C116.226 89.2689 116.919 89.3041 117.785 89.3746L114.425 102.134ZM132.3 93.8862L129.182 105.447H132.508L133.304 101.993C133.685 102.204 134.586 102.381 135.036 102.381C137.288 102.381 139.089 100.548 139.955 98.3977C140.406 97.2698 140.614 96.1772 140.614 95.1551C140.614 93.3927 139.955 92.1238 138.085 92.1238C136.907 92.1238 136.041 93.0403 135.417 94.2386C135.591 93.2165 135.313 92.1238 133.616 92.1238C132.369 92.1238 131.399 92.8288 130.983 94.0272L130.464 95.5075H130.81L131.226 94.3796C131.538 93.569 131.849 93.1812 132.126 93.1812C132.404 93.1812 132.369 93.6395 132.3 93.8862ZM184.504 94.7321C184.816 93.1812 184.504 92.1238 182.806 92.1238C181.559 92.1238 180.589 92.8288 180.174 94.0272L179.654 95.5075H180L180.416 94.3796C180.728 93.569 181.04 93.1812 181.386 93.1812C181.732 93.1812 181.698 93.6042 181.594 93.9567L179.342 102.099H182.598L183.326 99.2789C183.811 97.4108 184.504 96.001 185.023 95.0141C185.578 93.9919 186.063 93.4632 186.513 93.4632C186.825 93.4632 186.721 93.7099 186.548 94.2739L184.331 102.099H187.621L188.384 99.4551C189.007 97.3403 189.631 95.7895 190.22 94.8731C190.808 93.9214 191.293 93.4632 191.674 93.4632C191.848 93.4632 191.848 93.8509 191.674 94.2739L190.081 99.1379C189.908 99.7019 189.804 100.195 189.804 100.618C189.804 101.64 190.497 102.381 191.778 102.381C193.095 102.381 193.995 101.711 194.411 100.442L194.861 99.0674H194.515L194.134 100.125C193.857 100.9 193.51 101.288 193.164 101.288C192.818 101.288 192.783 100.935 192.922 100.513L194.758 94.9436C194.931 94.4149 195 93.9567 195 93.6042C195 92.6173 194.446 92.1238 193.337 92.1238C192.575 92.1238 191.882 92.3353 191.259 92.7935C190.67 93.2517 190.116 94.0977 189.561 95.296L189.665 94.9436C189.804 94.4149 189.873 93.9919 189.873 93.6042C189.873 92.6173 189.319 92.1238 188.245 92.1238C186.236 92.1238 185.231 93.4632 184.261 95.578L184.504 94.7321ZM179.308 91.7361C178.268 92.1591 176.987 92.6525 175.947 92.6525L175.774 93.287C175.705 92.5821 175.151 92.1238 174.458 92.1238C172.483 92.1238 170.543 94.3091 169.47 96.3887C168.811 97.6576 168.569 98.8559 168.569 100.019C168.569 101.57 169.331 102.381 170.821 102.381C172.241 102.381 173.141 101.64 173.626 100.231V100.583C173.626 101.676 174.215 102.381 175.532 102.381C176.848 102.381 177.749 101.711 178.164 100.442L178.615 99.0674H178.268L177.887 100.125C177.61 100.9 177.264 101.288 176.917 101.288C176.536 101.288 176.571 100.971 176.71 100.513L179.308 91.7361ZM136.699 98.01C136.145 99.7019 135.106 101.746 133.859 101.746C133.72 101.746 133.547 101.711 133.374 101.676L135.036 95.6838C135.452 94.6616 136.11 93.3575 136.768 93.3575C137.149 93.3575 137.184 94.1682 137.184 94.8731C137.19 95.9385 137.026 96.9979 136.699 98.01ZM147.265 97.3051C146.78 98.9264 145.498 101.993 144.632 101.993C144.32 101.993 144.251 101.64 144.251 100.935C144.251 99.8428 144.459 98.6445 144.84 97.3051C145.325 95.578 146.641 92.4763 147.542 92.4763C147.75 92.4763 147.854 93.005 147.854 93.569C147.854 94.7321 147.646 96.001 147.265 97.3051ZM150.902 95.296C150.902 93.3222 149.828 92.1238 147.611 92.1238C143.87 92.1238 141.202 95.4018 141.202 99.1732C141.202 101.288 142.38 102.381 144.493 102.381C148.235 102.381 150.902 99.0674 150.902 95.296ZM175.566 93.8509L174.25 98.3272C173.869 99.5961 173.28 101.076 172.587 101.076C172.172 101.076 172.172 100.689 172.172 100.09C172.172 99.0322 172.345 97.9395 172.691 96.8469C173.176 95.3665 174.319 93.0403 175.22 93.0403C175.497 93.0403 175.601 93.428 175.566 93.8509ZM165.555 94.2034C166.179 92.8288 167.114 91.9829 168.188 91.9829C169.262 91.9829 170.024 92.7583 170.024 93.8509C170.024 95.1551 169.088 96.1772 167.876 96.1772C166.906 96.1772 166.525 95.578 166.525 94.8026C166.525 93.569 167.599 92.5821 168.604 92.5116C168.428 92.3958 168.224 92.3345 168.015 92.3353C167.391 92.3353 166.733 92.8993 166.317 93.4985C165.694 94.4149 165.209 95.6838 164.828 96.7764L163.477 102.028H160.22L162.091 95.3313C162.541 93.6747 162.23 92.5116 161.364 92.5116C160.809 92.5116 160.116 93.0755 159.493 93.6395L159.32 93.3575C160.22 92.3001 162.126 91.1722 163.477 91.1722C164.862 91.1722 165.902 92.4411 165.555 94.2034ZM156.444 95.578C156.584 94.9059 156.654 94.2207 156.652 93.5337C156.652 92.7935 156.514 92.4763 156.237 92.4763C155.682 92.4763 155.232 93.7099 155.093 94.5911C154.98 95.2664 154.922 95.9503 154.92 96.6354C154.92 97.3756 154.99 97.6928 155.267 97.6928C155.96 97.6928 156.306 96.2829 156.444 95.578ZM159.735 94.2739C159.735 96.1067 158.003 97.3403 156.063 97.9395C155.163 98.2215 154.366 98.6445 154.366 98.9969C154.366 99.3494 154.712 99.4904 156.687 100.125C157.865 100.513 158.765 101.253 158.765 102.416C158.765 104.531 155.717 105.623 153.015 105.623C151.491 105.623 149.378 105.2 149.378 104.178C149.378 103.191 151.491 102.839 152.461 102.733C153.015 102.663 154.158 102.486 154.678 102.275L154.886 102.557C153.154 102.768 152.01 103.861 152.01 104.46C152.01 104.954 152.703 105.341 153.327 105.341C154.678 105.341 156.306 104.495 156.306 103.544C156.306 103.086 155.405 102.804 154.227 102.416C153.05 102.028 151.491 101.535 151.491 100.654C151.491 99.4904 153.223 98.7855 155.093 98.0453H154.886C153.188 98.0453 151.837 97.4461 151.837 95.8952C151.837 93.7099 154.227 92.1238 156.722 92.1238C158.558 92.1238 159.735 92.7935 159.735 94.2739ZM129.806 93.9214C129.806 92.723 129.321 92.1238 128.385 92.1238C127.554 92.1238 126.965 92.5468 126.965 93.6395C126.965 94.8026 127.762 95.8247 128.87 96.4944C128.385 97.869 127.762 99.1379 126.93 100.336L126.134 94.3444C125.926 92.864 125.371 92.1238 123.951 92.1238C122.704 92.1238 122.011 92.7583 121.596 94.0272L121.145 95.4018H121.492L121.838 94.3796C122.046 93.7452 122.358 93.1812 122.6 93.1812C122.808 93.1812 122.877 93.428 122.981 93.9919L124.471 103.262C123.847 103.826 123.154 104.319 122.358 104.672C121.734 103.579 120.972 103.015 120.071 103.015C119.656 103.015 119.275 103.156 118.997 103.403C118.755 103.685 118.616 104.002 118.616 104.39C118.616 104.777 118.755 105.059 118.997 105.306C119.275 105.518 119.656 105.623 120.141 105.623C120.503 105.622 120.864 105.575 121.215 105.482C122.046 105.271 122.877 104.883 123.743 104.284C124.575 103.72 125.371 102.98 126.168 102.028C127.173 100.795 128.004 99.4199 128.732 97.869C129.424 96.3534 129.806 95.0141 129.806 93.9214Z" fill="black"/>
</g>
</g>
<defs>
<linearGradient id="paint0_linear" x1="25" y1="22" x2="28" y2="25" gradientUnits="userSpaceOnUse">
<stop/>
<stop offset="1" stop-opacity="0"/>
</linearGradient>
<linearGradient id="paint1_linear" x1="156" y1="22" x2="159" y2="25" gradientUnits="userSpaceOnUse">
<stop/>
<stop offset="1" stop-opacity="0"/>
</linearGradient>
<linearGradient id="paint2_linear" x1="135" y1="58" x2="138" y2="61" gradientUnits="userSpaceOnUse">
<stop/>
<stop offset="1" stop-opacity="0"/>
</linearGradient>
<linearGradient id="paint3_linear" x1="41.1421" y1="20.1421" x2="38.1421" y2="17.1421" gradientUnits="userSpaceOnUse">
<stop/>
<stop offset="1" stop-opacity="0"/>
</linearGradient>
<linearGradient id="paint4_linear" x1="172.142" y1="20.1421" x2="169.142" y2="17.1421" gradientUnits="userSpaceOnUse">
<stop/>
<stop offset="1" stop-opacity="0"/>
</linearGradient>
<linearGradient id="paint5_linear" x1="151.142" y1="56.1421" x2="148.142" y2="53.1421" gradientUnits="userSpaceOnUse">
<stop/>
<stop offset="1" stop-opacity="0"/>
</linearGradient>
<clipPath id="clip0">
<rect width="221" height="109" fill="white"/>
</clipPath>
<clipPath id="clip1">
<rect width="83" height="17.6233" fill="white" transform="translate(112 88)"/>
</clipPath>
</defs>
</svg>
