<svg width="221" height="106" viewBox="0 0 221 106" fill="none" xmlns="http://www.w3.org/2000/svg">
<g clip-path="url(#clip0)">
<rect width="221" height="106" fill="white"/>
<path d="M11.088 26.184C12 26.184 12.744 26.052 13.32 25.788C13.92 25.5 14.376 25.128 14.688 24.672C15.024 24.192 15.252 23.652 15.372 23.052C15.492 22.428 15.552 21.792 15.552 21.144V20.496H20.304V21.144C20.304 24.144 19.512 26.46 17.928 28.092C16.368 29.7 14.088 30.504 11.088 30.504C8.208 30.504 5.928 29.628 4.248 27.876C2.568 26.124 1.728 23.568 1.728 20.208V14.592C1.728 12.984 1.944 11.544 2.376 10.272C2.808 8.976 3.432 7.896 4.248 7.032C5.064 6.144 6.048 5.472 7.2 5.016C8.352 4.536 9.648 4.296 11.088 4.296C12.576 4.296 13.896 4.512 15.048 4.944C16.2 5.376 17.16 6 17.928 6.816C18.72 7.632 19.308 8.616 19.692 9.768C20.1 10.92 20.304 12.216 20.304 13.656V14.304H15.552V13.656C15.552 13.056 15.48 12.456 15.336 11.856C15.192 11.256 14.952 10.716 14.616 10.236C14.28 9.756 13.824 9.372 13.248 9.084C12.672 8.772 11.952 8.616 11.088 8.616C10.296 8.616 9.612 8.772 9.036 9.084C8.46 9.372 7.98 9.78 7.596 10.308C7.212 10.812 6.924 11.412 6.732 12.108C6.564 12.78 6.48 13.488 6.48 14.232V20.568C6.48 21.384 6.564 22.14 6.732 22.836C6.9 23.508 7.164 24.096 7.524 24.6C7.884 25.104 8.352 25.5 8.928 25.788C9.528 26.052 10.248 26.184 11.088 26.184ZM59.7099 27.408H59.0619C58.8699 27.816 58.6299 28.212 58.3419 28.596C58.0779 28.956 57.7179 29.28 57.2619 29.568C56.8299 29.856 56.3019 30.084 55.6779 30.252C55.0779 30.42 54.3459 30.504 53.4819 30.504C52.3779 30.504 51.3459 30.312 50.3859 29.928C49.4499 29.52 48.6219 28.932 47.9019 28.164C47.2059 27.372 46.6539 26.412 46.2459 25.284C45.8619 24.156 45.6699 22.86 45.6699 21.396V20.748C45.6699 19.308 45.8739 18.024 46.2819 16.896C46.7139 15.768 47.2899 14.82 48.0099 14.052C48.7539 13.26 49.6059 12.66 50.5659 12.252C51.5499 11.844 52.5819 11.64 53.6619 11.64C55.1019 11.64 56.2419 11.916 57.0819 12.468C57.9219 12.996 58.5819 13.752 59.0619 14.736H59.7099V4.8H64.2459V30H59.7099V27.408ZM54.9579 26.184C56.3739 26.184 57.5139 25.74 58.3779 24.852C59.2659 23.94 59.7099 22.752 59.7099 21.288V20.856C59.7099 19.392 59.2659 18.216 58.3779 17.328C57.5139 16.416 56.3739 15.96 54.9579 15.96C53.5419 15.96 52.3899 16.404 51.5019 17.292C50.6379 18.156 50.2059 19.344 50.2059 20.856V21.288C50.2059 22.8 50.6379 24 51.5019 24.888C52.3899 25.752 53.5419 26.184 54.9579 26.184ZM69.2609 25.68H75.3089V16.464H69.6929V12.144H79.8449V25.68H85.0289V30H69.2609V25.68ZM80.9609 6.852C80.9609 7.332 80.8649 7.788 80.6729 8.22C80.5049 8.628 80.2649 8.988 79.9529 9.3C79.6409 9.588 79.2689 9.828 78.8369 10.02C78.4289 10.188 77.9969 10.272 77.5409 10.272C77.0609 10.272 76.6169 10.188 76.2089 10.02C75.8009 9.828 75.4409 9.588 75.1289 9.3C74.8169 8.988 74.5649 8.628 74.3729 8.22C74.2049 7.788 74.1209 7.332 74.1209 6.852C74.1209 6.372 74.2049 5.928 74.3729 5.52C74.5649 5.088 74.8169 4.728 75.1289 4.44C75.4409 4.128 75.8009 3.888 76.2089 3.72C76.6169 3.528 77.0609 3.432 77.5409 3.432C77.9969 3.432 78.4289 3.528 78.8369 3.72C79.2689 3.888 79.6409 4.128 79.9529 4.44C80.2649 4.728 80.5049 5.088 80.6729 5.52C80.8649 5.928 80.9609 6.372 80.9609 6.852ZM95.5159 30H90.9799V12.144H95.5159V14.808H96.1639C96.5719 13.8 97.2319 13.02 98.1439 12.468C99.0559 11.916 100.124 11.64 101.348 11.64C102.212 11.64 103.016 11.784 103.76 12.072C104.528 12.336 105.2 12.756 105.776 13.332C106.352 13.908 106.796 14.64 107.108 15.528C107.444 16.416 107.612 17.472 107.612 18.696V30H103.076V19.848C103.076 18.576 102.764 17.58 102.14 16.86C101.54 16.116 100.664 15.744 99.5119 15.744C98.1679 15.744 97.1599 16.2 96.4879 17.112C95.8399 18 95.5159 19.2 95.5159 20.712V30ZM125.767 27.408H125.119C124.927 27.816 124.687 28.212 124.399 28.596C124.135 28.956 123.775 29.28 123.319 29.568C122.887 29.856 122.359 30.084 121.735 30.252C121.135 30.42 120.403 30.504 119.539 30.504C118.435 30.504 117.403 30.312 116.443 29.928C115.507 29.52 114.679 28.932 113.959 28.164C113.263 27.372 112.711 26.412 112.303 25.284C111.919 24.156 111.727 22.86 111.727 21.396V20.748C111.727 19.308 111.931 18.024 112.339 16.896C112.771 15.768 113.347 14.82 114.067 14.052C114.811 13.26 115.663 12.66 116.623 12.252C117.607 11.844 118.639 11.64 119.719 11.64C121.159 11.64 122.299 11.916 123.139 12.468C123.979 12.996 124.639 13.752 125.119 14.736H125.767V12.144H130.303V34.392C130.303 35.208 130.039 35.88 129.511 36.408C129.007 36.936 128.347 37.2 127.531 37.2H115.507V32.88H124.795C125.443 32.88 125.767 32.52 125.767 31.8V27.408ZM121.015 26.184C122.431 26.184 123.571 25.74 124.435 24.852C125.323 23.94 125.767 22.752 125.767 21.288V20.856C125.767 19.392 125.323 18.216 124.435 17.328C123.571 16.416 122.431 15.96 121.015 15.96C119.599 15.96 118.447 16.404 117.559 17.292C116.695 18.156 116.263 19.344 116.263 20.856V21.288C116.263 22.8 116.695 24 117.559 24.888C118.447 25.752 119.599 26.184 121.015 26.184ZM135.426 4.8H151.554V9.336H140.178V15.096H151.338V19.632H140.178V30H135.426V4.8ZM183.688 30H179.152V12.144H183.688V14.808H184.336C184.744 13.8 185.404 13.02 186.316 12.468C187.228 11.916 188.296 11.64 189.52 11.64C190.384 11.64 191.188 11.784 191.932 12.072C192.7 12.336 193.372 12.756 193.948 13.332C194.524 13.908 194.968 14.64 195.28 15.528C195.616 16.416 195.784 17.472 195.784 18.696V30H191.248V19.848C191.248 18.576 190.936 17.58 190.312 16.86C189.712 16.116 188.836 15.744 187.684 15.744C186.34 15.744 185.332 16.2 184.66 17.112C184.012 18 183.688 19.2 183.688 20.712V30ZM200.691 12.144H205.983V4.8H210.519V12.144H216.963V16.464H210.519V24.6C210.519 25.32 210.843 25.68 211.491 25.68H216.315V30H208.755C207.939 30 207.267 29.736 206.739 29.208C206.235 28.68 205.983 28.008 205.983 27.192V16.464H200.691V12.144Z" fill="#27AE60"/>
<path d="M7.344 56.496V66H2.592V40.8H12.456C13.752 40.8 14.88 41.016 15.84 41.448C16.8 41.856 17.592 42.408 18.216 43.104C18.864 43.776 19.344 44.556 19.656 45.444C19.992 46.308 20.16 47.196 20.16 48.108V48.972C20.16 49.908 19.992 50.832 19.656 51.744C19.344 52.632 18.864 53.436 18.216 54.156C17.592 54.852 16.8 55.416 15.84 55.848C14.88 56.28 13.752 56.496 12.456 56.496H7.344ZM7.344 51.96H11.988C13.044 51.96 13.872 51.672 14.472 51.096C15.096 50.52 15.408 49.776 15.408 48.864V48.432C15.408 47.52 15.096 46.776 14.472 46.2C13.872 45.624 13.044 45.336 11.988 45.336H7.344V51.96ZM24.743 61.68H31.007V45.12H24.959V40.8H35.543V61.68H41.375V66H24.743V61.68ZM58.4499 63.408C57.9699 64.536 57.2979 65.34 56.4339 65.82C55.5699 66.276 54.5619 66.504 53.4099 66.504C52.3299 66.504 51.3099 66.3 50.3499 65.892C49.4139 65.484 48.5859 64.884 47.8659 64.092C47.1459 63.3 46.5699 62.34 46.1379 61.212C45.7299 60.084 45.5259 58.8 45.5259 57.36V56.784C45.5259 55.368 45.7299 54.096 46.1379 52.968C46.5459 51.84 47.0979 50.88 47.7939 50.088C48.4899 49.296 49.2939 48.696 50.2059 48.288C51.1419 47.856 52.1379 47.64 53.1939 47.64C54.4659 47.64 55.4859 47.856 56.2539 48.288C57.0459 48.72 57.6699 49.392 58.1259 50.304H58.7739V48.144H63.3099V60.6C63.3099 61.32 63.6339 61.68 64.2819 61.68H64.9659V66H61.8699C61.0539 66 60.3819 65.76 59.8539 65.28C59.3499 64.8 59.0979 64.176 59.0979 63.408H58.4499ZM54.4179 62.184C55.7379 62.184 56.7939 61.752 57.5859 60.888C58.3779 60 58.7739 58.8 58.7739 57.288V56.856C58.7739 55.344 58.3779 54.156 57.5859 53.292C56.7939 52.404 55.7379 51.96 54.4179 51.96C53.0979 51.96 52.0419 52.404 51.2499 53.292C50.4579 54.156 50.0619 55.344 50.0619 56.856V57.288C50.0619 58.8 50.4579 60 51.2499 60.888C52.0419 61.752 53.0979 62.184 54.4179 62.184ZM81.0329 48.144H85.5689V70.392C85.5689 71.208 85.3049 71.88 84.7769 72.408C84.2729 72.936 83.6129 73.2 82.7969 73.2H72.1769V68.88H80.0609C80.7089 68.88 81.0329 68.52 81.0329 67.8V63.408H80.3849C79.5929 65.472 77.8889 66.504 75.2729 66.504C74.3849 66.504 73.5569 66.36 72.7889 66.072C72.0209 65.784 71.3489 65.34 70.7729 64.74C70.1969 64.14 69.7409 63.396 69.4049 62.508C69.0929 61.596 68.9369 60.528 68.9369 59.304V48.144H73.4729V58.368C73.4729 59.64 73.7729 60.636 74.3729 61.356C74.9729 62.052 75.8729 62.4 77.0729 62.4C78.4409 62.4 79.4369 61.968 80.0609 61.104C80.7089 60.216 81.0329 59.016 81.0329 57.504V48.144ZM103.724 63.408H103.076C102.884 63.816 102.644 64.212 102.356 64.596C102.092 64.956 101.732 65.28 101.276 65.568C100.844 65.856 100.316 66.084 99.6919 66.252C99.0919 66.42 98.3599 66.504 97.4959 66.504C96.3919 66.504 95.3599 66.312 94.3999 65.928C93.4639 65.52 92.6359 64.932 91.9159 64.164C91.2199 63.372 90.6679 62.412 90.2599 61.284C89.8759 60.156 89.6839 58.86 89.6839 57.396V56.748C89.6839 55.308 89.8879 54.024 90.2959 52.896C90.7279 51.768 91.3039 50.82 92.0239 50.052C92.7679 49.26 93.6199 48.66 94.5799 48.252C95.5639 47.844 96.5959 47.64 97.6759 47.64C99.1159 47.64 100.256 47.916 101.096 48.468C101.936 48.996 102.596 49.752 103.076 50.736H103.724V48.144H108.26V70.392C108.26 71.208 107.996 71.88 107.468 72.408C106.964 72.936 106.304 73.2 105.488 73.2H93.4639V68.88H102.752C103.4 68.88 103.724 68.52 103.724 67.8V63.408ZM98.9719 62.184C100.388 62.184 101.528 61.74 102.392 60.852C103.28 59.94 103.724 58.752 103.724 57.288V56.856C103.724 55.392 103.28 54.216 102.392 53.328C101.528 52.416 100.388 51.96 98.9719 51.96C97.5559 51.96 96.4039 52.404 95.5159 53.292C94.6519 54.156 94.2199 55.344 94.2199 56.856V57.288C94.2199 58.8 94.6519 60 95.5159 60.888C96.4039 61.752 97.5559 62.184 98.9719 62.184ZM112.159 48.144H119.719V50.736H120.367C120.703 49.752 121.267 48.996 122.059 48.468C122.875 47.916 123.847 47.64 124.975 47.64C126.751 47.64 128.179 48.204 129.259 49.332C130.339 50.436 130.879 52.128 130.879 54.408V55.2L126.199 55.632V55.128C126.199 54.144 125.947 53.364 125.443 52.788C124.939 52.188 124.183 51.888 123.175 51.888C122.167 51.888 121.375 52.236 120.799 52.932C120.223 53.628 119.935 54.624 119.935 55.92V61.68H124.039V66H111.727V61.68H115.399V52.464H112.159V48.144ZM169.205 48.144H173.741V66H169.205V63.408H168.557C167.765 65.472 166.061 66.504 163.445 66.504C162.557 66.504 161.729 66.36 160.961 66.072C160.193 65.784 159.521 65.34 158.945 64.74C158.369 64.14 157.913 63.396 157.577 62.508C157.265 61.596 157.109 60.528 157.109 59.304V48.144H161.645V58.368C161.645 59.64 161.945 60.636 162.545 61.356C163.145 62.052 164.045 62.4 165.245 62.4C166.613 62.4 167.609 61.968 168.233 61.104C168.881 60.216 169.205 59.016 169.205 57.504V48.144ZM183.688 66H179.152V48.144H183.688V50.808H184.336C184.744 49.8 185.404 49.02 186.316 48.468C187.228 47.916 188.296 47.64 189.52 47.64C190.384 47.64 191.188 47.784 191.932 48.072C192.7 48.336 193.372 48.756 193.948 49.332C194.524 49.908 194.968 50.64 195.28 51.528C195.616 52.416 195.784 53.472 195.784 54.696V66H191.248V55.848C191.248 54.576 190.936 53.58 190.312 52.86C189.712 52.116 188.836 51.744 187.684 51.744C186.34 51.744 185.332 52.2 184.66 53.112C184.012 54 183.688 55.2 183.688 56.712V66ZM214.011 63.408H213.363C213.171 63.816 212.931 64.212 212.643 64.596C212.379 64.956 212.019 65.28 211.563 65.568C211.131 65.856 210.603 66.084 209.979 66.252C209.379 66.42 208.647 66.504 207.783 66.504C206.679 66.504 205.647 66.312 204.687 65.928C203.751 65.52 202.923 64.932 202.203 64.164C201.507 63.372 200.955 62.412 200.547 61.284C200.163 60.156 199.971 58.86 199.971 57.396V56.748C199.971 55.308 200.175 54.024 200.583 52.896C201.015 51.768 201.591 50.82 202.311 50.052C203.055 49.26 203.907 48.66 204.867 48.252C205.851 47.844 206.883 47.64 207.963 47.64C209.403 47.64 210.543 47.916 211.383 48.468C212.223 48.996 212.883 49.752 213.363 50.736H214.011V40.8H218.547V66H214.011V63.408ZM209.259 62.184C210.675 62.184 211.815 61.74 212.679 60.852C213.567 59.94 214.011 58.752 214.011 57.288V56.856C214.011 55.392 213.567 54.216 212.679 53.328C211.815 52.416 210.675 51.96 209.259 51.96C207.843 51.96 206.691 52.404 205.803 53.292C204.939 54.156 204.507 55.344 204.507 56.856V57.288C204.507 58.8 204.939 60 205.803 60.888C206.691 61.752 207.843 62.184 209.259 62.184Z" fill="#27AE60"/>
<path d="M30.071 14L25.8284 18.2426C24.2663 19.8047 24.2663 22.3374 25.8284 23.8995L30.071 28.1421" stroke="#27AE60" stroke-width="4.6" stroke-linecap="round"/>
<mask id="mask0" style="mask-type:alpha" maskUnits="userSpaceOnUse" x="22" y="11" width="11" height="20">
<path d="M30.071 14L25.8284 18.2426C24.2663 19.8047 24.2663 22.3374 25.8284 23.8995L30.071 28.1421" stroke="#EB5757" stroke-width="4.6" stroke-linecap="round"/>
</mask>
<g mask="url(#mask0)">
<g style="mix-blend-mode:darken" opacity="0.25">
<path d="M24.9678 22.4322L30.2001 17.2L29 30L24.9678 25.9678C23.9915 24.9915 23.9915 23.4086 24.9678 22.4322Z" fill="url(#paint0_linear)"/>
</g>
</g>
<path d="M161.071 14L156.828 18.2426C155.266 19.8047 155.266 22.3374 156.828 23.8995L161.071 28.1421" stroke="#27AE60" stroke-width="4.6" stroke-linecap="round"/>
<mask id="mask1" style="mask-type:alpha" maskUnits="userSpaceOnUse" x="153" y="11" width="11" height="20">
<path d="M161.071 14L156.828 18.2426C155.266 19.8047 155.266 22.3374 156.828 23.8995L161.071 28.1421" stroke="#EB5757" stroke-width="4.6" stroke-linecap="round"/>
</mask>
<g mask="url(#mask1)">
<g style="mix-blend-mode:darken" opacity="0.25">
<path d="M155.968 22.4322L161.2 17.2L160 30L155.968 25.9678C154.992 24.9915 154.992 23.4086 155.968 22.4322Z" fill="url(#paint1_linear)"/>
</g>
</g>
<path d="M140.071 50L135.828 54.2426C134.266 55.8047 134.266 58.3374 135.828 59.8995L140.071 64.1421" stroke="#27AE60" stroke-width="4.6" stroke-linecap="round"/>
<mask id="mask2" style="mask-type:alpha" maskUnits="userSpaceOnUse" x="132" y="47" width="11" height="20">
<path d="M140.071 50L135.828 54.2426C134.266 55.8047 134.266 58.3374 135.828 59.8995L140.071 64.1421" stroke="#EB5757" stroke-width="4.6" stroke-linecap="round"/>
</mask>
<g mask="url(#mask2)">
<g style="mix-blend-mode:darken" opacity="0.25">
<path d="M134.968 58.4322L140.2 53.2L139 66L134.968 61.9678C133.992 60.9915 133.992 59.4086 134.968 58.4322Z" fill="url(#paint2_linear)"/>
</g>
</g>
<path d="M36.071 28.1421L40.3137 23.8994C41.8758 22.3374 41.8758 19.8047 40.3137 18.2426L36.071 14" stroke="#27AE60" stroke-width="4.6" stroke-linecap="round"/>
<mask id="mask3" style="mask-type:alpha" maskUnits="userSpaceOnUse" x="33" y="11" width="11" height="20">
<path d="M36.071 28.1421L40.3137 23.8994C41.8758 22.3374 41.8758 19.8047 40.3137 18.2426L36.071 14" stroke="#EB5757" stroke-width="4.6" stroke-linecap="round"/>
</mask>
<g mask="url(#mask3)">
<g style="mix-blend-mode:darken" opacity="0.25">
<path d="M41.1743 19.7098L35.942 24.9421L37.1421 12.1421L41.1743 16.1743C42.1506 17.1506 42.1506 18.7335 41.1743 19.7098Z" fill="url(#paint3_linear)"/>
</g>
</g>
<path d="M167.071 28.1421L171.314 23.8994C172.876 22.3374 172.876 19.8047 171.314 18.2426L167.071 14" stroke="#27AE60" stroke-width="4.6" stroke-linecap="round"/>
<mask id="mask4" style="mask-type:alpha" maskUnits="userSpaceOnUse" x="164" y="11" width="11" height="20">
<path d="M167.071 28.1421L171.314 23.8994C172.876 22.3374 172.876 19.8047 171.314 18.2426L167.071 14" stroke="#EB5757" stroke-width="4.6" stroke-linecap="round"/>
</mask>
<g mask="url(#mask4)">
<g style="mix-blend-mode:darken" opacity="0.25">
<path d="M172.174 19.7098L166.942 24.9421L168.142 12.1421L172.174 16.1743C173.151 17.1506 173.151 18.7335 172.174 19.7098Z" fill="url(#paint4_linear)"/>
</g>
</g>
<path d="M146.071 64.1421L150.314 59.8994C151.876 58.3374 151.876 55.8047 150.314 54.2426L146.071 50" stroke="#27AE60" stroke-width="4.6" stroke-linecap="round"/>
<mask id="mask5" style="mask-type:alpha" maskUnits="userSpaceOnUse" x="143" y="47" width="11" height="20">
<path d="M146.071 64.1421L150.314 59.8994C151.876 58.3374 151.876 55.8047 150.314 54.2426L146.071 50" stroke="#EB5757" stroke-width="4.6" stroke-linecap="round"/>
</mask>
<g mask="url(#mask5)">
<g style="mix-blend-mode:darken" opacity="0.25">
<path d="M151.174 55.7098L145.942 60.9421L147.142 48.1421L151.174 52.1743C152.151 53.1506 152.151 54.7335 151.174 55.7098Z" fill="url(#paint5_linear)"/>
</g>
</g>
<path d="M5.698 95.092C5.614 95.404 5.572 95.644 5.572 95.812C5.572 96.076 5.662 96.274 5.842 96.406C6.022 96.538 6.328 96.616 6.76 96.64L6.688 97C5.86 96.964 4.816 96.946 3.556 96.946C1.996 96.946 0.856 96.964 0.136 97L0.208 96.64C0.64 96.616 0.964 96.568 1.18 96.496C1.396 96.424 1.564 96.286 1.684 96.082C1.816 95.878 1.942 95.548 2.062 95.092L4.438 86.164C4.522 85.768 4.564 85.492 4.564 85.336C4.564 85.096 4.48 84.922 4.312 84.814C4.144 84.706 3.832 84.64 3.376 84.616L3.466 84.256C4.162 84.292 5.26 84.31 6.76 84.31C7.336 84.31 7.768 84.304 8.056 84.292L9.388 84.274C10.972 84.274 12.142 84.496 12.898 84.94C13.666 85.384 14.05 86.068 14.05 86.992C14.05 87.904 13.732 88.726 13.096 89.458C12.472 90.19 11.59 90.772 10.45 91.204C9.322 91.624 8.02 91.852 6.544 91.888L5.698 95.092ZM6.652 91.51C7.492 91.45 8.182 91.162 8.722 90.646C9.262 90.118 9.652 89.482 9.892 88.738C10.132 87.994 10.252 87.25 10.252 86.506C10.252 85.882 10.138 85.414 9.91 85.102C9.694 84.778 9.346 84.616 8.866 84.616C8.674 84.616 8.542 84.676 8.47 84.796C8.398 84.904 8.32 85.15 8.236 85.534C8.212 85.618 8.188 85.714 8.164 85.822C8.14 85.93 8.11 86.044 8.074 86.164L6.652 91.51ZM20.9748 87.406C21.5148 87.406 21.9408 87.574 22.2528 87.91C22.5648 88.234 22.7208 88.648 22.7208 89.152C22.7208 89.764 22.5288 90.292 22.1448 90.736C21.7608 91.18 21.2748 91.402 20.6868 91.402C20.2428 91.402 19.9068 91.288 19.6788 91.06C19.4508 90.832 19.3368 90.496 19.3368 90.052C19.3368 89.524 19.5288 89.044 19.9128 88.612C20.2968 88.18 20.7588 87.916 21.2988 87.82C21.1548 87.784 21.0708 87.766 21.0468 87.766C20.6628 87.766 20.3148 87.844 20.0028 88C19.6908 88.156 19.3428 88.54 18.9588 89.152C18.5868 89.764 18.1908 90.7 17.7708 91.96L16.4568 97H13.2708L15.4668 89.188C15.5148 89.008 15.5388 88.852 15.5388 88.72C15.5388 88.528 15.4608 88.432 15.3048 88.432C15.1128 88.432 14.9388 88.516 14.7828 88.684C14.6268 88.852 14.4708 89.146 14.3148 89.566L13.9008 90.664H13.5588L14.0628 89.26C14.5068 88.024 15.4008 87.406 16.7448 87.406C17.3208 87.406 17.7408 87.562 18.0048 87.874C18.2688 88.186 18.4008 88.588 18.4008 89.08C18.4008 89.248 18.3948 89.374 18.3828 89.458C18.7308 88.702 19.1028 88.174 19.4988 87.874C19.9068 87.562 20.3988 87.406 20.9748 87.406ZM22.1314 94.192C22.1314 93.172 22.3654 92.14 22.8334 91.096C23.3014 90.04 24.0034 89.164 24.9394 88.468C25.8874 87.76 27.0394 87.406 28.3954 87.406C29.4394 87.406 30.2314 87.67 30.7714 88.198C31.3234 88.726 31.5994 89.482 31.5994 90.466C31.5994 91.486 31.3654 92.524 30.8974 93.58C30.4294 94.624 29.7214 95.5 28.7734 96.208C27.8374 96.904 26.6914 97.252 25.3354 97.252C24.2914 97.252 23.4934 96.988 22.9414 96.46C22.4014 95.932 22.1314 95.176 22.1314 94.192ZM28.3054 87.766C27.9694 87.766 27.5434 88.216 27.0274 89.116C26.5114 90.016 26.0614 91.108 25.6774 92.392C25.3054 93.664 25.1194 94.828 25.1194 95.884C25.1194 96.256 25.1434 96.52 25.1914 96.676C25.2514 96.82 25.3414 96.892 25.4614 96.892C25.7854 96.892 26.1994 96.46 26.7034 95.596C27.2194 94.72 27.6634 93.652 28.0354 92.392C28.4194 91.132 28.6114 89.938 28.6114 88.81C28.6114 88.39 28.5814 88.114 28.5214 87.982C28.4734 87.838 28.4014 87.766 28.3054 87.766ZM29.631 100.024C30.147 100.024 30.603 99.838 30.999 99.466C31.395 99.106 31.689 98.536 31.881 97.756L34.275 89.188C34.335 88.972 34.365 88.816 34.365 88.72C34.365 88.528 34.275 88.432 34.095 88.432C33.915 88.432 33.747 88.522 33.591 88.702C33.435 88.882 33.279 89.17 33.123 89.566L32.709 90.664H32.367L32.871 89.26C33.111 88.612 33.471 88.144 33.951 87.856C34.443 87.556 34.989 87.406 35.589 87.406C36.225 87.406 36.681 87.556 36.957 87.856C37.233 88.144 37.371 88.528 37.371 89.008C37.371 89.296 37.323 89.602 37.227 89.926L35.679 95.56C35.415 96.616 35.115 97.432 34.779 98.008C34.455 98.584 34.005 99.076 33.429 99.484C32.577 100.084 31.281 100.384 29.541 100.384L29.631 100.024ZM34.959 84.832C34.959 84.208 35.157 83.734 35.553 83.41C35.961 83.086 36.495 82.924 37.155 82.924C37.683 82.924 38.079 83.026 38.343 83.23C38.619 83.434 38.757 83.74 38.757 84.148C38.757 84.7 38.547 85.15 38.127 85.498C37.707 85.846 37.179 86.02 36.543 86.02C36.027 86.02 35.631 85.918 35.355 85.714C35.091 85.51 34.959 85.216 34.959 84.832ZM46.8274 88.99C46.8274 89.998 46.2634 90.88 45.1354 91.636C44.0194 92.38 42.6874 92.932 41.1394 93.292C41.1034 93.616 41.0854 93.922 41.0854 94.21C41.0854 94.87 41.2114 95.326 41.4634 95.578C41.7154 95.83 42.0874 95.956 42.5794 95.956C42.8794 95.956 43.2634 95.854 43.7314 95.65C44.2114 95.446 44.6674 95.128 45.0994 94.696L45.3874 94.84C44.9314 95.524 44.3134 96.1 43.5334 96.568C42.7534 97.024 41.8534 97.252 40.8334 97.252C39.9454 97.252 39.2014 97.03 38.6014 96.586C38.0134 96.142 37.7194 95.518 37.7194 94.714C37.7194 93.538 38.0194 92.386 38.6194 91.258C39.2314 90.118 40.0594 89.194 41.1034 88.486C42.1594 87.766 43.3234 87.406 44.5954 87.406C45.2674 87.406 45.8074 87.544 46.2154 87.82C46.6234 88.084 46.8274 88.474 46.8274 88.99ZM44.1994 87.748C43.8634 87.748 43.4854 88.006 43.0654 88.522C42.6574 89.038 42.2794 89.704 41.9314 90.52C41.5834 91.336 41.3374 92.152 41.1934 92.968C41.8294 92.596 42.3814 92.188 42.8494 91.744C43.3534 91.252 43.7494 90.706 44.0374 90.106C44.3374 89.506 44.4874 88.87 44.4874 88.198C44.4874 87.898 44.3914 87.748 44.1994 87.748ZM53.5791 87.766C52.9911 87.766 52.4271 88.09 51.8871 88.738C51.3591 89.374 50.9271 90.202 50.5911 91.222C50.2671 92.23 50.1051 93.256 50.1051 94.3C50.1051 94.924 50.2311 95.386 50.4831 95.686C50.7351 95.986 51.0891 96.136 51.5451 96.136C51.9291 96.136 52.2951 96.028 52.6431 95.812C52.9911 95.596 53.3451 95.224 53.7051 94.696L54.0651 94.84C53.0331 96.448 51.6591 97.252 49.9431 97.252C48.9831 97.252 48.2091 97.018 47.6211 96.55C47.0331 96.07 46.7391 95.356 46.7391 94.408C46.7391 93.34 47.0151 92.266 47.5671 91.186C48.1191 90.094 48.8991 89.194 49.9071 88.486C50.9151 87.766 52.0611 87.406 53.3451 87.406C54.0651 87.406 54.6351 87.586 55.0551 87.946C55.4751 88.306 55.6851 88.75 55.6851 89.278C55.6851 89.662 55.5891 90.04 55.3971 90.412C55.2051 90.772 54.9471 91.066 54.6231 91.294C54.2991 91.522 53.9511 91.636 53.5791 91.636C53.2431 91.636 52.9551 91.528 52.7151 91.312C52.4751 91.084 52.3551 90.772 52.3551 90.376C52.3551 89.812 52.5351 89.314 52.8951 88.882C53.2551 88.438 53.6871 88.138 54.1911 87.982C54.0351 87.838 53.8311 87.766 53.5791 87.766ZM58.8959 95.47C58.8599 95.59 58.8419 95.704 58.8419 95.812C58.8419 96.088 58.9679 96.226 59.2199 96.226C59.4599 96.226 59.6999 96.1 59.9399 95.848C60.1799 95.584 60.3719 95.254 60.5159 94.858L60.8039 94.084H61.1459L60.8039 95.074C60.5639 95.77 60.1979 96.31 59.7059 96.694C59.2139 97.066 58.6259 97.252 57.9419 97.252C57.2699 97.252 56.7659 97.078 56.4299 96.73C56.1059 96.382 55.9439 95.908 55.9439 95.308C55.9439 94.996 56.0039 94.612 56.1239 94.156L57.8879 88.018H56.2499L56.3399 87.658H57.9959L58.7519 85.012C60.0119 85 61.1039 84.916 62.0279 84.76L61.1819 87.658H62.9819L62.9279 88.018H61.0739L58.8959 95.47ZM74.0891 87.406C74.9171 87.406 75.5351 87.658 75.9431 88.162C76.3511 88.666 76.5551 89.392 76.5551 90.34C76.5551 91.324 76.3151 92.356 75.8351 93.436C75.3671 94.516 74.6891 95.422 73.8011 96.154C72.9131 96.886 71.8931 97.252 70.7411 97.252C70.4531 97.252 70.1831 97.216 69.9311 97.144C69.6791 97.072 69.4691 96.976 69.3011 96.856C69.0611 96.796 68.8271 96.766 68.5991 96.766C67.9751 96.766 67.2131 96.94 66.3131 97.288L66.0431 97.162C66.1871 96.874 66.3191 96.52 66.4391 96.1L69.7511 84.994C69.8111 84.778 69.8411 84.61 69.8411 84.49C69.8411 84.25 69.7451 84.076 69.5531 83.968C69.3731 83.86 69.0611 83.806 68.6171 83.806L68.7431 83.428C69.6911 83.416 70.5491 83.35 71.3171 83.23C72.0851 83.11 72.8351 82.93 73.5671 82.69L71.6411 89.224C71.9891 88.6 72.3611 88.144 72.7571 87.856C73.1531 87.556 73.5971 87.406 74.0891 87.406ZM69.9311 96.658C70.4471 96.658 70.9571 96.286 71.4611 95.542C71.9771 94.786 72.3971 93.856 72.7211 92.752C73.0451 91.648 73.2071 90.61 73.2071 89.638C73.2071 89.242 73.1711 88.972 73.0991 88.828C73.0391 88.684 72.9311 88.612 72.7751 88.612C72.5471 88.612 72.3071 88.762 72.0551 89.062C71.8031 89.35 71.5571 89.758 71.3171 90.286L69.4631 96.586C69.6551 96.634 69.8111 96.658 69.9311 96.658ZM84.1547 87.406C85.0667 87.406 85.5227 87.988 85.5227 89.152C85.5227 90.196 85.1747 91.462 84.4787 92.95C83.7947 94.426 82.9607 95.752 81.9767 96.928C81.2207 97.828 80.4287 98.554 79.6007 99.106C78.7847 99.67 77.9687 100.048 77.1527 100.24C76.7447 100.336 76.3907 100.384 76.0907 100.384C75.6107 100.384 75.2447 100.276 74.9927 100.06C74.7287 99.856 74.5967 99.568 74.5967 99.196C74.5967 98.836 74.7287 98.524 74.9927 98.26C75.2567 98.008 75.6047 97.882 76.0367 97.882C76.9007 97.882 77.6387 98.41 78.2507 99.466C79.0307 99.118 79.7267 98.668 80.3387 98.116L78.8807 89.206C78.8207 88.894 78.7667 88.69 78.7187 88.594C78.6827 88.486 78.6107 88.432 78.5027 88.432C78.3827 88.432 78.2747 88.504 78.1787 88.648C78.0947 88.792 77.9627 89.098 77.7827 89.566L77.4047 90.574H77.0627L77.5127 89.26C77.7527 88.576 78.0587 88.096 78.4307 87.82C78.8147 87.544 79.2827 87.406 79.8347 87.406C80.4347 87.406 80.9087 87.568 81.2567 87.892C81.6047 88.204 81.8387 88.756 81.9587 89.548L82.7327 95.308C83.5247 94.156 84.1547 92.92 84.6227 91.6C84.0587 91.288 83.6027 90.892 83.2547 90.412C82.9187 89.932 82.7507 89.422 82.7507 88.882C82.7507 88.426 82.8707 88.066 83.1107 87.802C83.3627 87.538 83.7107 87.406 84.1547 87.406Z" fill="black"/>
<g clip-path="url(#clip1)">
<path d="M90.4249 97.1339H94.2008L97.4224 84.6566C99.4662 84.6566 101.337 84.5508 102.445 83.1762L102.168 83C101.753 83.5639 100.644 83.9869 100.124 84.0926C99.0159 84.3041 97.076 84.2689 95.24 84.1279C93.6811 84.0222 92.4687 83.9517 91.6027 83.9517C90.0785 83.9517 88.7967 84.2689 88 85.4673L88.4157 85.6435C88.9353 84.5156 90.2517 84.2689 91.672 84.2689C92.2262 84.2689 92.919 84.3041 93.7851 84.3746L90.4249 97.1339ZM108.3 88.8862L105.182 100.447H108.508L109.304 96.9929C109.685 97.2044 110.586 97.3806 111.036 97.3806C113.288 97.3806 115.089 95.5478 115.955 93.3977C116.406 92.2698 116.614 91.1772 116.614 90.1551C116.614 88.3927 115.955 87.1238 114.085 87.1238C112.907 87.1238 112.041 88.0403 111.417 89.2386C111.591 88.2165 111.313 87.1238 109.616 87.1238C108.369 87.1238 107.399 87.8288 106.983 89.0272L106.464 90.5075H106.81L107.226 89.3796C107.538 88.569 107.849 88.1812 108.126 88.1812C108.404 88.1812 108.369 88.6395 108.3 88.8862ZM160.504 89.7321C160.816 88.1812 160.504 87.1238 158.806 87.1238C157.559 87.1238 156.589 87.8288 156.174 89.0272L155.654 90.5075H156L156.416 89.3796C156.728 88.569 157.04 88.1812 157.386 88.1812C157.732 88.1812 157.698 88.6042 157.594 88.9567L155.342 97.0986H158.598L159.326 94.2789C159.811 92.4108 160.504 91.001 161.023 90.0141C161.578 88.9919 162.063 88.4632 162.513 88.4632C162.825 88.4632 162.721 88.7099 162.548 89.2739L160.331 97.0986H163.621L164.384 94.4551C165.007 92.3403 165.631 90.7895 166.22 89.8731C166.808 88.9214 167.293 88.4632 167.674 88.4632C167.848 88.4632 167.848 88.8509 167.674 89.2739L166.081 94.1379C165.908 94.7019 165.804 95.1953 165.804 95.6183C165.804 96.6404 166.497 97.3806 167.778 97.3806C169.095 97.3806 169.995 96.7109 170.411 95.442L170.861 94.0674H170.515L170.134 95.1248C169.857 95.9002 169.51 96.288 169.164 96.288C168.818 96.288 168.783 95.9355 168.922 95.5125L170.758 89.9436C170.931 89.4149 171 88.9567 171 88.6042C171 87.6173 170.446 87.1238 169.337 87.1238C168.575 87.1238 167.882 87.3353 167.259 87.7935C166.67 88.2517 166.116 89.0977 165.561 90.296L165.665 89.9436C165.804 89.4149 165.873 88.9919 165.873 88.6042C165.873 87.6173 165.319 87.1238 164.245 87.1238C162.236 87.1238 161.231 88.4632 160.261 90.578L160.504 89.7321ZM155.308 86.7361C154.268 87.1591 152.987 87.6525 151.947 87.6525L151.774 88.287C151.705 87.5821 151.151 87.1238 150.458 87.1238C148.483 87.1238 146.543 89.3091 145.47 91.3887C144.811 92.6576 144.569 93.8559 144.569 95.0191C144.569 96.5699 145.331 97.3806 146.821 97.3806C148.241 97.3806 149.141 96.6404 149.626 95.2306V95.583C149.626 96.6757 150.215 97.3806 151.532 97.3806C152.848 97.3806 153.749 96.7109 154.164 95.442L154.615 94.0674H154.268L153.887 95.1248C153.61 95.9002 153.264 96.288 152.917 96.288C152.536 96.288 152.571 95.9707 152.71 95.5125L155.308 86.7361ZM112.699 93.01C112.145 94.7019 111.106 96.7462 109.859 96.7462C109.72 96.7462 109.547 96.7109 109.374 96.6757L111.036 90.6838C111.452 89.6616 112.11 88.3575 112.768 88.3575C113.149 88.3575 113.184 89.1682 113.184 89.8731C113.19 90.9385 113.026 91.9979 112.699 93.01ZM123.265 92.3051C122.78 93.9264 121.498 96.9929 120.632 96.9929C120.32 96.9929 120.251 96.6404 120.251 95.9355C120.251 94.8428 120.459 93.6445 120.84 92.3051C121.325 90.578 122.641 87.4763 123.542 87.4763C123.75 87.4763 123.854 88.005 123.854 88.569C123.854 89.7321 123.646 91.001 123.265 92.3051ZM126.902 90.296C126.902 88.3222 125.828 87.1238 123.611 87.1238C119.87 87.1238 117.202 90.4018 117.202 94.1732C117.202 96.288 118.38 97.3806 120.493 97.3806C124.235 97.3806 126.902 94.0674 126.902 90.296ZM151.566 88.8509L150.25 93.3272C149.869 94.5961 149.28 96.0765 148.587 96.0765C148.172 96.0765 148.172 95.6888 148.172 95.0896C148.172 94.0322 148.345 92.9395 148.691 91.8469C149.176 90.3665 150.319 88.0403 151.22 88.0403C151.497 88.0403 151.601 88.428 151.566 88.8509ZM141.555 89.2034C142.179 87.8288 143.114 86.9829 144.188 86.9829C145.262 86.9829 146.024 87.7583 146.024 88.8509C146.024 90.1551 145.088 91.1772 143.876 91.1772C142.906 91.1772 142.525 90.578 142.525 89.8026C142.525 88.569 143.599 87.5821 144.604 87.5116C144.428 87.3958 144.224 87.3345 144.015 87.3353C143.391 87.3353 142.733 87.8993 142.317 88.4985C141.694 89.4149 141.209 90.6838 140.828 91.7764L139.477 97.0281H136.22L138.091 90.3313C138.541 88.6747 138.23 87.5116 137.364 87.5116C136.809 87.5116 136.116 88.0755 135.493 88.6395L135.32 88.3575C136.22 87.3001 138.126 86.1722 139.477 86.1722C140.862 86.1722 141.902 87.4411 141.555 89.2034ZM132.444 90.578C132.584 89.9059 132.654 89.2207 132.652 88.5337C132.652 87.7935 132.514 87.4763 132.237 87.4763C131.682 87.4763 131.232 88.7099 131.093 89.5911C130.98 90.2664 130.922 90.9503 130.92 91.6354C130.92 92.3756 130.99 92.6928 131.267 92.6928C131.96 92.6928 132.306 91.2829 132.444 90.578ZM135.735 89.2739C135.735 91.1067 134.003 92.3403 132.063 92.9395C131.163 93.2215 130.366 93.6445 130.366 93.9969C130.366 94.3494 130.712 94.4904 132.687 95.1248C133.865 95.5125 134.765 96.2527 134.765 97.4158C134.765 99.5306 131.717 100.623 129.015 100.623C127.491 100.623 125.378 100.2 125.378 99.1782C125.378 98.1913 127.491 97.8388 128.461 97.7331C129.015 97.6626 130.158 97.4863 130.678 97.2749L130.886 97.5568C129.154 97.7683 128.01 98.861 128.01 99.4602C128.01 99.9536 128.703 100.341 129.327 100.341C130.678 100.341 132.306 99.4954 132.306 98.5437C132.306 98.0855 131.405 97.8036 130.227 97.4158C129.05 97.0281 127.491 96.5347 127.491 95.6535C127.491 94.4904 129.223 93.7855 131.093 93.0453H130.886C129.188 93.0453 127.837 92.4461 127.837 90.8952C127.837 88.7099 130.227 87.1238 132.722 87.1238C134.558 87.1238 135.735 87.7935 135.735 89.2739ZM105.806 88.9214C105.806 87.723 105.321 87.1238 104.385 87.1238C103.554 87.1238 102.965 87.5468 102.965 88.6395C102.965 89.8026 103.762 90.8247 104.87 91.4944C104.385 92.869 103.762 94.1379 102.93 95.3363L102.134 89.3444C101.926 87.864 101.371 87.1238 99.9512 87.1238C98.7041 87.1238 98.0113 87.7583 97.5956 89.0272L97.1452 90.4018H97.4917L97.8381 89.3796C98.0459 88.7452 98.3577 88.1812 98.6002 88.1812C98.808 88.1812 98.8773 88.428 98.9812 88.9919L100.471 98.2618C99.8472 98.8257 99.1544 99.3192 98.3577 99.6716C97.7341 98.579 96.972 98.015 96.0714 98.015C95.6557 98.015 95.2746 98.156 94.9975 98.4028C94.755 98.6847 94.6164 99.0019 94.6164 99.3897C94.6164 99.7774 94.755 100.059 94.9975 100.306C95.2746 100.518 95.6557 100.623 96.1407 100.623C96.503 100.622 96.8637 100.575 97.2145 100.482C98.0459 100.271 98.8773 99.8831 99.7433 99.2839C100.575 98.72 101.371 97.9798 102.168 97.0281C103.173 95.7945 104.004 94.4199 104.732 92.869C105.424 91.3534 105.806 90.0141 105.806 88.9214Z" fill="black"/>
</g>
</g>
<defs>
<linearGradient id="paint0_linear" x1="25" y1="22" x2="28" y2="25" gradientUnits="userSpaceOnUse">
<stop/>
<stop offset="1" stop-opacity="0"/>
</linearGradient>
<linearGradient id="paint1_linear" x1="156" y1="22" x2="159" y2="25" gradientUnits="userSpaceOnUse">
<stop/>
<stop offset="1" stop-opacity="0"/>
</linearGradient>
<linearGradient id="paint2_linear" x1="135" y1="58" x2="138" y2="61" gradientUnits="userSpaceOnUse">
<stop/>
<stop offset="1" stop-opacity="0"/>
</linearGradient>
<linearGradient id="paint3_linear" x1="41.1421" y1="20.1421" x2="38.1421" y2="17.1421" gradientUnits="userSpaceOnUse">
<stop/>
<stop offset="1" stop-opacity="0"/>
</linearGradient>
<linearGradient id="paint4_linear" x1="172.142" y1="20.1421" x2="169.142" y2="17.1421" gradientUnits="userSpaceOnUse">
<stop/>
<stop offset="1" stop-opacity="0"/>
</linearGradient>
<linearGradient id="paint5_linear" x1="151.142" y1="56.1421" x2="148.142" y2="53.1421" gradientUnits="userSpaceOnUse">
<stop/>
<stop offset="1" stop-opacity="0"/>
</linearGradient>
<clipPath id="clip0">
<rect width="221" height="106" fill="white"/>
</clipPath>
<clipPath id="clip1">
<rect width="83" height="17.6233" fill="white" transform="translate(88 83)"/>
</clipPath>
</defs>
</svg>
