<svg width="221" height="62" viewBox="0 0 221 62" fill="none" xmlns="http://www.w3.org/2000/svg">
<g clip-path="url(#clip0)">
<path d="M11.088 26.184C12 26.184 12.744 26.052 13.32 25.788C13.92 25.5 14.376 25.128 14.688 24.672C15.024 24.192 15.252 23.652 15.372 23.052C15.492 22.428 15.552 21.792 15.552 21.144V20.496H20.304V21.144C20.304 24.144 19.512 26.46 17.928 28.092C16.368 29.7 14.088 30.504 11.088 30.504C8.208 30.504 5.928 29.628 4.248 27.876C2.568 26.124 1.728 23.568 1.728 20.208V14.592C1.728 12.984 1.944 11.544 2.376 10.272C2.808 8.976 3.432 7.896 4.248 7.032C5.064 6.144 6.048 5.472 7.2 5.016C8.352 4.536 9.648 4.296 11.088 4.296C12.576 4.296 13.896 4.512 15.048 4.944C16.2 5.376 17.16 6 17.928 6.816C18.72 7.632 19.308 8.616 19.692 9.768C20.1 10.92 20.304 12.216 20.304 13.656V14.304H15.552V13.656C15.552 13.056 15.48 12.456 15.336 11.856C15.192 11.256 14.952 10.716 14.616 10.236C14.28 9.756 13.824 9.372 13.248 9.084C12.672 8.772 11.952 8.616 11.088 8.616C10.296 8.616 9.612 8.772 9.036 9.084C8.46 9.372 7.98 9.78 7.596 10.308C7.212 10.812 6.924 11.412 6.732 12.108C6.564 12.78 6.48 13.488 6.48 14.232V20.568C6.48 21.384 6.564 22.14 6.732 22.836C6.9 23.508 7.164 24.096 7.524 24.6C7.884 25.104 8.352 25.5 8.928 25.788C9.528 26.052 10.248 26.184 11.088 26.184ZM59.7099 27.408H59.0619C58.8699 27.816 58.6299 28.212 58.3419 28.596C58.0779 28.956 57.7179 29.28 57.2619 29.568C56.8299 29.856 56.3019 30.084 55.6779 30.252C55.0779 30.42 54.3459 30.504 53.4819 30.504C52.3779 30.504 51.3459 30.312 50.3859 29.928C49.4499 29.52 48.6219 28.932 47.9019 28.164C47.2059 27.372 46.6539 26.412 46.2459 25.284C45.8619 24.156 45.6699 22.86 45.6699 21.396V20.748C45.6699 19.308 45.8739 18.024 46.2819 16.896C46.7139 15.768 47.2899 14.82 48.0099 14.052C48.7539 13.26 49.6059 12.66 50.5659 12.252C51.5499 11.844 52.5819 11.64 53.6619 11.64C55.1019 11.64 56.2419 11.916 57.0819 12.468C57.9219 12.996 58.5819 13.752 59.0619 14.736H59.7099V4.8H64.2459V30H59.7099V27.408ZM54.9579 26.184C56.3739 26.184 57.5139 25.74 58.3779 24.852C59.2659 23.94 59.7099 22.752 59.7099 21.288V20.856C59.7099 19.392 59.2659 18.216 58.3779 17.328C57.5139 16.416 56.3739 15.96 54.9579 15.96C53.5419 15.96 52.3899 16.404 51.5019 17.292C50.6379 18.156 50.2059 19.344 50.2059 20.856V21.288C50.2059 22.8 50.6379 24 51.5019 24.888C52.3899 25.752 53.5419 26.184 54.9579 26.184ZM69.2609 25.68H75.3089V16.464H69.6929V12.144H79.8449V25.68H85.0289V30H69.2609V25.68ZM80.9609 6.852C80.9609 7.332 80.8649 7.788 80.6729 8.22C80.5049 8.628 80.2649 8.988 79.9529 9.3C79.6409 9.588 79.2689 9.828 78.8369 10.02C78.4289 10.188 77.9969 10.272 77.5409 10.272C77.0609 10.272 76.6169 10.188 76.2089 10.02C75.8009 9.828 75.4409 9.588 75.1289 9.3C74.8169 8.988 74.5649 8.628 74.3729 8.22C74.2049 7.788 74.1209 7.332 74.1209 6.852C74.1209 6.372 74.2049 5.928 74.3729 5.52C74.5649 5.088 74.8169 4.728 75.1289 4.44C75.4409 4.128 75.8009 3.888 76.2089 3.72C76.6169 3.528 77.0609 3.432 77.5409 3.432C77.9969 3.432 78.4289 3.528 78.8369 3.72C79.2689 3.888 79.6409 4.128 79.9529 4.44C80.2649 4.728 80.5049 5.088 80.6729 5.52C80.8649 5.928 80.9609 6.372 80.9609 6.852ZM95.5159 30H90.9799V12.144H95.5159V14.808H96.1639C96.5719 13.8 97.2319 13.02 98.1439 12.468C99.0559 11.916 100.124 11.64 101.348 11.64C102.212 11.64 103.016 11.784 103.76 12.072C104.528 12.336 105.2 12.756 105.776 13.332C106.352 13.908 106.796 14.64 107.108 15.528C107.444 16.416 107.612 17.472 107.612 18.696V30H103.076V19.848C103.076 18.576 102.764 17.58 102.14 16.86C101.54 16.116 100.664 15.744 99.5119 15.744C98.1679 15.744 97.1599 16.2 96.4879 17.112C95.8399 18 95.5159 19.2 95.5159 20.712V30ZM125.767 27.408H125.119C124.927 27.816 124.687 28.212 124.399 28.596C124.135 28.956 123.775 29.28 123.319 29.568C122.887 29.856 122.359 30.084 121.735 30.252C121.135 30.42 120.403 30.504 119.539 30.504C118.435 30.504 117.403 30.312 116.443 29.928C115.507 29.52 114.679 28.932 113.959 28.164C113.263 27.372 112.711 26.412 112.303 25.284C111.919 24.156 111.727 22.86 111.727 21.396V20.748C111.727 19.308 111.931 18.024 112.339 16.896C112.771 15.768 113.347 14.82 114.067 14.052C114.811 13.26 115.663 12.66 116.623 12.252C117.607 11.844 118.639 11.64 119.719 11.64C121.159 11.64 122.299 11.916 123.139 12.468C123.979 12.996 124.639 13.752 125.119 14.736H125.767V12.144H130.303V34.392C130.303 35.208 130.039 35.88 129.511 36.408C129.007 36.936 128.347 37.2 127.531 37.2H115.507V32.88H124.795C125.443 32.88 125.767 32.52 125.767 31.8V27.408ZM121.015 26.184C122.431 26.184 123.571 25.74 124.435 24.852C125.323 23.94 125.767 22.752 125.767 21.288V20.856C125.767 19.392 125.323 18.216 124.435 17.328C123.571 16.416 122.431 15.96 121.015 15.96C119.599 15.96 118.447 16.404 117.559 17.292C116.695 18.156 116.263 19.344 116.263 20.856V21.288C116.263 22.8 116.695 24 117.559 24.888C118.447 25.752 119.599 26.184 121.015 26.184ZM135.426 4.8H151.554V9.336H140.178V15.096H151.338V19.632H140.178V30H135.426V4.8ZM183.688 30H179.152V12.144H183.688V14.808H184.336C184.744 13.8 185.404 13.02 186.316 12.468C187.228 11.916 188.296 11.64 189.52 11.64C190.384 11.64 191.188 11.784 191.932 12.072C192.7 12.336 193.372 12.756 193.948 13.332C194.524 13.908 194.968 14.64 195.28 15.528C195.616 16.416 195.784 17.472 195.784 18.696V30H191.248V19.848C191.248 18.576 190.936 17.58 190.312 16.86C189.712 16.116 188.836 15.744 187.684 15.744C186.34 15.744 185.332 16.2 184.66 17.112C184.012 18 183.688 19.2 183.688 20.712V30ZM200.691 12.144H205.983V4.8H210.519V12.144H216.963V16.464H210.519V24.6C210.519 25.32 210.843 25.68 211.491 25.68H216.315V30H208.755C207.939 30 207.267 29.736 206.739 29.208C206.235 28.68 205.983 28.008 205.983 27.192V16.464H200.691V12.144Z" fill="#27AE60"/>
<path d="M30.071 14L25.8284 18.2426C24.2663 19.8047 24.2663 22.3374 25.8284 23.8995L30.071 28.1421" stroke="#27AE60" stroke-width="4.6" stroke-linecap="round"/>
<mask id="mask0" style="mask-type:alpha" maskUnits="userSpaceOnUse" x="19" y="10" width="22" height="22">
<path d="M30.071 14L25.8284 18.2426C24.2663 19.8047 24.2663 22.3374 25.8284 23.8995L30.071 28.1421" stroke="#EB5757" stroke-width="4.6" stroke-linecap="round"/>
</mask>
<g mask="url(#mask0)">
<g style="mix-blend-mode:darken" opacity="0.25">
<path d="M24.9678 22.4322L30.2001 17.2L29 30L24.9678 25.9678C23.9915 24.9915 23.9915 23.4086 24.9678 22.4322Z" fill="url(#paint0_linear)"/>
</g>
</g>
<path d="M161.071 14L156.828 18.2426C155.266 19.8047 155.266 22.3374 156.828 23.8995L161.071 28.1421" stroke="#27AE60" stroke-width="4.6" stroke-linecap="round"/>
<mask id="mask1" style="mask-type:alpha" maskUnits="userSpaceOnUse" x="150" y="10" width="22" height="22">
<path d="M161.071 14L156.828 18.2426C155.266 19.8047 155.266 22.3374 156.828 23.8995L161.071 28.1421" stroke="#EB5757" stroke-width="4.6" stroke-linecap="round"/>
</mask>
<g mask="url(#mask1)">
<g style="mix-blend-mode:darken" opacity="0.25">
<path d="M155.968 22.4322L161.2 17.2L160 30L155.968 25.9678C154.992 24.9915 154.992 23.4086 155.968 22.4322Z" fill="url(#paint1_linear)"/>
</g>
</g>
<path d="M36.071 28.1421L40.3137 23.8994C41.8758 22.3374 41.8758 19.8047 40.3137 18.2426L36.071 14" stroke="#27AE60" stroke-width="4.6" stroke-linecap="round"/>
<mask id="mask2" style="mask-type:alpha" maskUnits="userSpaceOnUse" x="25" y="10" width="22" height="22">
<path d="M36.071 28.1421L40.3137 23.8994C41.8758 22.3374 41.8758 19.8047 40.3137 18.2426L36.071 14" stroke="#EB5757" stroke-width="4.6" stroke-linecap="round"/>
</mask>
<g mask="url(#mask2)">
<g style="mix-blend-mode:darken" opacity="0.25">
<path d="M41.1743 19.7098L35.942 24.9421L37.1421 12.1421L41.1743 16.1743C42.1506 17.1506 42.1506 18.7335 41.1743 19.7098Z" fill="url(#paint2_linear)"/>
</g>
</g>
<path d="M167.071 28.1421L171.314 23.8994C172.876 22.3374 172.876 19.8047 171.314 18.2426L167.071 14" stroke="#27AE60" stroke-width="4.6" stroke-linecap="round"/>
<mask id="mask3" style="mask-type:alpha" maskUnits="userSpaceOnUse" x="156" y="10" width="22" height="22">
<path d="M167.071 28.1421L171.314 23.8994C172.876 22.3374 172.876 19.8047 171.314 18.2426L167.071 14" stroke="#EB5757" stroke-width="4.6" stroke-linecap="round"/>
</mask>
<g mask="url(#mask3)">
<g style="mix-blend-mode:darken" opacity="0.25">
<path d="M172.174 19.7098L166.942 24.9421L168.142 12.1421L172.174 16.1743C173.151 17.1506 173.151 18.7335 172.174 19.7098Z" fill="url(#paint3_linear)"/>
</g>
</g>
<path d="M9.47 44.406C10.298 44.406 10.916 44.658 11.324 45.162C11.732 45.666 11.936 46.392 11.936 47.34C11.936 48.324 11.696 49.356 11.216 50.436C10.748 51.516 10.07 52.422 9.182 53.154C8.294 53.886 7.274 54.252 6.122 54.252C5.834 54.252 5.564 54.216 5.312 54.144C5.06 54.072 4.85 53.976 4.682 53.856C4.442 53.796 4.208 53.766 3.98 53.766C3.356 53.766 2.594 53.94 1.694 54.288L1.424 54.162C1.568 53.874 1.7 53.52 1.82 53.1L5.132 41.994C5.192 41.778 5.222 41.61 5.222 41.49C5.222 41.25 5.126 41.076 4.934 40.968C4.754 40.86 4.442 40.806 3.998 40.806L4.124 40.428C5.072 40.416 5.93 40.35 6.698 40.23C7.466 40.11 8.216 39.93 8.948 39.69L7.022 46.224C7.37 45.6 7.742 45.144 8.138 44.856C8.534 44.556 8.978 44.406 9.47 44.406ZM5.312 53.658C5.828 53.658 6.338 53.286 6.842 52.542C7.358 51.786 7.778 50.856 8.102 49.752C8.426 48.648 8.588 47.61 8.588 46.638C8.588 46.242 8.552 45.972 8.48 45.828C8.42 45.684 8.312 45.612 8.156 45.612C7.928 45.612 7.688 45.762 7.436 46.062C7.184 46.35 6.938 46.758 6.698 47.286L4.844 53.586C5.036 53.634 5.192 53.658 5.312 53.658ZM19.5355 44.406C20.4475 44.406 20.9035 44.988 20.9035 46.152C20.9035 47.196 20.5555 48.462 19.8595 49.95C19.1755 51.426 18.3415 52.752 17.3575 53.928C16.6015 54.828 15.8095 55.554 14.9815 56.106C14.1655 56.67 13.3495 57.048 12.5335 57.24C12.1255 57.336 11.7715 57.384 11.4715 57.384C10.9915 57.384 10.6255 57.276 10.3735 57.06C10.1095 56.856 9.97752 56.568 9.97752 56.196C9.97752 55.836 10.1095 55.524 10.3735 55.26C10.6375 55.008 10.9855 54.882 11.4175 54.882C12.2815 54.882 13.0195 55.41 13.6315 56.466C14.4115 56.118 15.1075 55.668 15.7195 55.116L14.2615 46.206C14.2015 45.894 14.1475 45.69 14.0995 45.594C14.0635 45.486 13.9915 45.432 13.8835 45.432C13.7635 45.432 13.6555 45.504 13.5595 45.648C13.4755 45.792 13.3435 46.098 13.1635 46.566L12.7855 47.574H12.4435L12.8935 46.26C13.1335 45.576 13.4395 45.096 13.8115 44.82C14.1955 44.544 14.6635 44.406 15.2155 44.406C15.8155 44.406 16.2895 44.568 16.6375 44.892C16.9855 45.204 17.2195 45.756 17.3395 46.548L18.1135 52.308C18.9055 51.156 19.5355 49.92 20.0035 48.6C19.4395 48.288 18.9835 47.892 18.6355 47.412C18.2995 46.932 18.1315 46.422 18.1315 45.882C18.1315 45.426 18.2515 45.066 18.4915 44.802C18.7435 44.538 19.0915 44.406 19.5355 44.406Z" fill="black"/>
<g clip-path="url(#clip1)">
<path d="M27.4249 54.1339H31.2008L34.4224 41.6566C36.4662 41.6566 38.3368 41.5508 39.4453 40.1762L39.1682 40C38.7525 40.5639 37.644 40.9869 37.1244 41.0926C36.0159 41.3041 34.076 41.2689 32.24 41.1279C30.6811 41.0222 29.4687 40.9517 28.6027 40.9517C27.0785 40.9517 25.7967 41.2689 25 42.4673L25.4157 42.6435C25.9353 41.5156 27.2517 41.2689 28.672 41.2689C29.2262 41.2689 29.919 41.3041 30.7851 41.3746L27.4249 54.1339ZM45.2997 45.8862L42.182 57.4471H45.5075L46.3043 53.9929C46.6853 54.2044 47.586 54.3806 48.0363 54.3806C50.288 54.3806 52.0893 52.5478 52.9553 50.3977C53.4057 49.2698 53.6135 48.1772 53.6135 47.1551C53.6135 45.3927 52.9553 44.1238 51.0847 44.1238C49.9069 44.1238 49.0409 45.0403 48.4174 46.2386C48.5906 45.2165 48.3134 44.1238 46.616 44.1238C45.3689 44.1238 44.399 44.8288 43.9833 46.0272L43.4637 47.5075H43.8101L44.2258 46.3796C44.5376 45.569 44.8493 45.1812 45.1265 45.1812C45.4036 45.1812 45.3689 45.6395 45.2997 45.8862ZM97.5038 46.7321C97.8155 45.1812 97.5038 44.1238 95.8063 44.1238C94.5593 44.1238 93.5893 44.8288 93.1736 46.0272L92.654 47.5075H93.0004L93.4161 46.3796C93.7279 45.569 94.0396 45.1812 94.3861 45.1812C94.7325 45.1812 94.6978 45.6042 94.5939 45.9567L92.3422 54.0986H95.5985L96.326 51.2789C96.8109 49.4108 97.5038 48.001 98.0234 47.0141C98.5776 45.9919 99.0626 45.4632 99.5129 45.4632C99.8247 45.4632 99.7208 45.7099 99.5476 46.2739L97.3306 54.0986H100.621L101.384 51.4551C102.007 49.3403 102.631 47.7895 103.22 46.8731C103.808 45.9214 104.293 45.4632 104.674 45.4632C104.848 45.4632 104.848 45.8509 104.674 46.2739L103.081 51.1379C102.908 51.7019 102.804 52.1953 102.804 52.6183C102.804 53.6404 103.497 54.3806 104.778 54.3806C106.095 54.3806 106.995 53.7109 107.411 52.442L107.861 51.0674H107.515L107.134 52.1248C106.857 52.9002 106.51 53.288 106.164 53.288C105.818 53.288 105.783 52.9355 105.922 52.5125L107.758 46.9436C107.931 46.4149 108 45.9567 108 45.6042C108 44.6173 107.446 44.1238 106.337 44.1238C105.575 44.1238 104.882 44.3353 104.259 44.7935C103.67 45.2517 103.116 46.0977 102.561 47.296L102.665 46.9436C102.804 46.4149 102.873 45.9919 102.873 45.6042C102.873 44.6173 102.319 44.1238 101.245 44.1238C99.2358 44.1238 98.2312 45.4632 97.2613 47.578L97.5038 46.7321ZM92.3076 43.7361C91.2684 44.1591 89.9866 44.6525 88.9474 44.6525L88.7742 45.287C88.7049 44.5821 88.1507 44.1238 87.4578 44.1238C85.4833 44.1238 83.5434 46.3091 82.4695 48.3887C81.8114 49.6576 81.5689 50.8559 81.5689 52.0191C81.5689 53.5699 82.331 54.3806 83.8205 54.3806C85.2408 54.3806 86.1415 53.6404 86.6265 52.2306V52.583C86.6265 53.6757 87.2154 54.3806 88.5317 54.3806C89.8481 54.3806 90.7487 53.7109 91.1644 52.442L91.6148 51.0674H91.2684L90.8873 52.1248C90.6102 52.9002 90.2638 53.288 89.9174 53.288C89.5363 53.288 89.571 52.9707 89.7095 52.5125L92.3076 43.7361ZM49.6991 50.01C49.1448 51.7019 48.1056 53.7462 46.8585 53.7462C46.7199 53.7462 46.5467 53.7109 46.3735 53.6757L48.0363 47.6838C48.452 46.6616 49.1102 45.3575 49.7684 45.3575C50.1494 45.3575 50.1841 46.1682 50.1841 46.8731C50.1899 47.9385 50.0261 48.9979 49.6991 50.01ZM60.2646 49.3051C59.7796 50.9264 58.4979 53.9929 57.6319 53.9929C57.3201 53.9929 57.2508 53.6404 57.2508 52.9355C57.2508 51.8428 57.4587 50.6445 57.8397 49.3051C58.3247 47.578 59.6411 44.4763 60.5417 44.4763C60.7496 44.4763 60.8535 45.005 60.8535 45.569C60.8535 46.7321 60.6457 48.001 60.2646 49.3051ZM63.9019 47.296C63.9019 45.3222 62.828 44.1238 60.611 44.1238C56.8698 44.1238 54.2024 47.4018 54.2024 51.1732C54.2024 53.288 55.3802 54.3806 57.4933 54.3806C61.2346 54.3806 63.9019 51.0674 63.9019 47.296ZM88.5664 45.8509L87.25 50.3272C86.8689 51.5961 86.28 53.0765 85.5872 53.0765C85.1715 53.0765 85.1715 52.6888 85.1715 52.0896C85.1715 51.0322 85.3447 49.9395 85.6912 48.8469C86.1761 47.3665 87.3193 45.0403 88.22 45.0403C88.4971 45.0403 88.601 45.428 88.5664 45.8509ZM78.5551 46.2034C79.1786 44.8288 80.1139 43.9829 81.1878 43.9829C82.2617 43.9829 83.0238 44.7583 83.0238 45.8509C83.0238 47.1551 82.0885 48.1772 80.876 48.1772C79.9061 48.1772 79.525 47.578 79.525 46.8026C79.525 45.569 80.5989 44.5821 81.6035 44.5116C81.4282 44.3958 81.2236 44.3345 81.0146 44.3353C80.3911 44.3353 79.7329 44.8993 79.3172 45.4985C78.6937 46.4149 78.2087 47.6838 77.8276 48.7764L76.4766 54.0281H73.2204L75.091 47.3313C75.5413 45.6747 75.2295 44.5116 74.3635 44.5116C73.8093 44.5116 73.1164 45.0755 72.4929 45.6395L72.3197 45.3575C73.2204 44.3001 75.1256 43.1722 76.4766 43.1722C77.8623 43.1722 78.9015 44.4411 78.5551 46.2034ZM69.4445 47.578C69.5839 46.9059 69.6536 46.2207 69.6523 45.5337C69.6523 44.7935 69.5138 44.4763 69.2366 44.4763C68.6824 44.4763 68.2321 45.7099 68.0935 46.5911C67.9798 47.2664 67.9218 47.9503 67.9203 48.6354C67.9203 49.3756 67.9896 49.6928 68.2667 49.6928C68.9595 49.6928 69.3059 48.2829 69.4445 47.578ZM72.7354 46.2739C72.7354 48.1067 71.0033 49.3403 69.0634 49.9395C68.1628 50.2215 67.366 50.6445 67.366 50.9969C67.366 51.3494 67.7124 51.4904 69.687 52.1248C70.8648 52.5125 71.7654 53.2527 71.7654 54.4158C71.7654 56.5306 68.717 57.6233 66.015 57.6233C64.4908 57.6233 62.3777 57.2003 62.3777 56.1782C62.3777 55.1913 64.4908 54.8388 65.4608 54.7331C66.015 54.6626 67.1582 54.4863 67.6778 54.2749L67.8856 54.5568C66.1536 54.7683 65.0104 55.861 65.0104 56.4602C65.0104 56.9536 65.7033 57.3413 66.3268 57.3413C67.6778 57.3413 69.3059 56.4954 69.3059 55.5437C69.3059 55.0855 68.4053 54.8036 67.2275 54.4158C66.0497 54.0281 64.4908 53.5347 64.4908 52.6535C64.4908 51.4904 66.2229 50.7855 68.0935 50.0453H67.8856C66.1882 50.0453 64.8372 49.4461 64.8372 47.8952C64.8372 45.7099 67.2275 44.1238 69.7216 44.1238C71.5576 44.1238 72.7354 44.7935 72.7354 46.2739ZM42.8055 45.9214C42.8055 44.723 42.3205 44.1238 41.3852 44.1238C40.5538 44.1238 39.9649 44.5468 39.9649 45.6395C39.9649 46.8026 40.7617 47.8247 41.8702 48.4944C41.3852 49.869 40.7617 51.1379 39.9303 52.3363L39.1336 46.3444C38.9257 44.864 38.3715 44.1238 36.9512 44.1238C35.7041 44.1238 35.0113 44.7583 34.5956 46.0272L34.1452 47.4018H34.4917L34.8381 46.3796C35.0459 45.7452 35.3577 45.1812 35.6002 45.1812C35.808 45.1812 35.8773 45.428 35.9812 45.9919L37.4708 55.2618C36.8472 55.8257 36.1544 56.3192 35.3577 56.6716C34.7341 55.579 33.972 55.015 33.0714 55.015C32.6557 55.015 32.2746 55.156 31.9975 55.4028C31.755 55.6847 31.6164 56.0019 31.6164 56.3897C31.6164 56.7774 31.755 57.0593 31.9975 57.3061C32.2746 57.5175 32.6557 57.6233 33.1407 57.6233C33.503 57.6221 33.8637 57.5747 34.2145 57.4823C35.0459 57.2708 35.8773 56.8831 36.7433 56.2839C37.5747 55.72 38.3715 54.9798 39.1682 54.0281C40.1728 52.7945 41.0042 51.4199 41.7316 49.869C42.4245 48.3534 42.8055 47.0141 42.8055 45.9214Z" fill="black"/>
</g>
</g>
<defs>
<linearGradient id="paint0_linear" x1="25" y1="22" x2="28" y2="25" gradientUnits="userSpaceOnUse">
<stop/>
<stop offset="1" stop-opacity="0"/>
</linearGradient>
<linearGradient id="paint1_linear" x1="156" y1="22" x2="159" y2="25" gradientUnits="userSpaceOnUse">
<stop/>
<stop offset="1" stop-opacity="0"/>
</linearGradient>
<linearGradient id="paint2_linear" x1="41.1421" y1="20.1421" x2="38.1421" y2="17.1421" gradientUnits="userSpaceOnUse">
<stop/>
<stop offset="1" stop-opacity="0"/>
</linearGradient>
<linearGradient id="paint3_linear" x1="172.142" y1="20.1421" x2="169.142" y2="17.1421" gradientUnits="userSpaceOnUse">
<stop/>
<stop offset="1" stop-opacity="0"/>
</linearGradient>
<clipPath id="clip0">
<rect width="221" height="62" fill="white"/>
</clipPath>
<clipPath id="clip1">
<rect width="83" height="17.6233" fill="white" transform="translate(25 40)"/>
</clipPath>
</defs>
</svg>
